<svg width="900" height="550" viewBox="0 0 900 550" fill="none" xmlns="http://www.w3.org/2000/svg">
<path fill-rule="evenodd" clip-rule="evenodd" d="M900 0V550H450H0V0L450 360L900 0Z" fill="#FEFDFC"/>
<mask id="path-2-inside-1_1820_3176" fill="white">
<path d="M0 0L450 360L900 0L450 347L0 0Z"/>
</mask>
<path d="M0 0L450 360L900 0L450 347L0 0Z" fill="#FFFEFD"/>
<path d="M450 360L443.128 368.59L450 374.087L456.872 368.59L450 360ZM0 0L6.7171 -8.71094L-6.87165 8.58956L0 0ZM900 0L906.872 8.58956L893.283 -8.71094L900 0ZM450 347L443.283 355.711L450 360.891L456.717 355.711L450 347ZM456.872 351.41L6.87165 -8.58956L-6.87165 8.58956L443.128 368.59L456.872 351.41ZM456.872 368.59L906.872 8.58956L893.128 -8.58956L443.128 351.41L456.872 368.59ZM-6.7171 8.71094L443.283 355.711L456.717 338.289L6.7171 -8.71094L-6.7171 8.71094ZM456.717 355.711L906.717 8.71094L893.283 -8.71094L443.283 338.289L456.717 355.711Z" fill="#DDE6ED" mask="url(#path-2-inside-1_1820_3176)"/>
<path d="M0 548.5L341 304.5H381.5L366.5 293H341L0 548.5Z" fill="#DDE6ED"/>
<path d="M899 548.5L558 304.5H519L533.5 293H558L899 548.5Z" fill="#DDE6ED"/>
</svg>
