<svg width="170" height="36" viewBox="0 0 170 36" fill="none" xmlns="http://www.w3.org/2000/svg">
<rect x="1" y="1" width="168" height="34" rx="17" fill="#121212" fill-opacity="0.21"/>
<rect x="1" y="1" width="168" height="34" rx="17" stroke="#911681" stroke-width="2"/>
<rect x="27.2402" y="7.18323" width="17.813" height="17.813" transform="rotate(45 27.2402 7.18323)" fill="#33006F"/>
<path d="M14.6062 19.5435L27.2357 6.91323L31.8588 24.1669L14.6062 19.5435Z" fill="#DA53C9"/>
<path d="M39.9316 19.7102L27.2631 6.93852L22.5746 24.4365L39.9316 19.7102Z" fill="#DA53C9"/>
<rect x="27.2402" y="8.86255" width="15.4379" height="15.4379" transform="rotate(45 27.2402 8.86255)" fill="#911681"/>
<path d="M20.7329 17.4696C20.7329 17.4696 18.2138 19.5689 18.2138 19.9888C18.2138 20.4086 19.6833 21.4583 19.6833 21.4583M32.6989 16.8399L35.428 19.569L33.9585 21.0385M32.489 22.5079L33.1187 21.8782" stroke="white" stroke-width="0.593767"/>
<path d="M49.1411 26H44.5611V12.4H49.1411C50.3144 12.4 51.2811 12.5267 52.0411 12.78C52.8011 13.02 53.3877 13.4267 53.8011 14C54.2277 14.56 54.5211 15.2267 54.6811 16C54.8411 16.76 54.9211 17.7533 54.9211 18.98C54.9211 20.2067 54.8477 21.2267 54.7011 22.04C54.5544 22.84 54.2744 23.56 53.8611 24.2C53.4611 24.8267 52.8744 25.2867 52.1011 25.58C51.3277 25.86 50.3411 26 49.1411 26ZM52.0411 20.6C52.0677 20.1733 52.0811 19.5867 52.0811 18.84C52.0811 18.08 52.0544 17.4733 52.0011 17.02C51.9477 16.5667 51.8211 16.1533 51.6211 15.78C51.4211 15.4067 51.1211 15.1533 50.7211 15.02C50.3344 14.8733 49.8077 14.8 49.1411 14.8H47.3211V23.6H49.1411C50.1411 23.6 50.8677 23.3467 51.3211 22.84C51.7077 22.4267 51.9477 21.68 52.0411 20.6ZM59.275 22.14C59.2883 22.7533 59.4483 23.2 59.755 23.48C60.075 23.7467 60.5283 23.88 61.115 23.88C62.355 23.88 63.4616 23.84 64.435 23.76L64.995 23.7L65.035 25.68C63.5016 26.0533 62.115 26.24 60.875 26.24C59.3683 26.24 58.275 25.84 57.595 25.04C56.915 24.24 56.575 22.94 56.575 21.14C56.575 17.5533 58.0483 15.76 60.995 15.76C63.9016 15.76 65.355 17.2667 65.355 20.28L65.155 22.14H59.275ZM62.715 20.1C62.715 19.3 62.5883 18.7467 62.335 18.44C62.0816 18.12 61.635 17.96 60.995 17.96C60.3683 17.96 59.9216 18.1267 59.655 18.46C59.4016 18.78 59.2683 19.3267 59.255 20.1H62.715ZM74.4503 18.5C72.7969 18.2867 71.6369 18.18 70.9703 18.18C70.3169 18.18 69.8903 18.24 69.6903 18.36C69.5036 18.48 69.4103 18.6733 69.4103 18.94C69.4103 19.1933 69.5369 19.3733 69.7903 19.48C70.0569 19.5733 70.7236 19.72 71.7903 19.92C72.8703 20.1067 73.6369 20.42 74.0903 20.86C74.5436 21.3 74.7703 22.0133 74.7703 23C74.7703 25.16 73.4303 26.24 70.7503 26.24C69.8703 26.24 68.8036 26.12 67.5503 25.88L66.9103 25.76L66.9903 23.52C68.6436 23.7333 69.7903 23.84 70.4303 23.84C71.0836 23.84 71.5236 23.78 71.7503 23.66C71.9903 23.5267 72.1103 23.3333 72.1103 23.08C72.1103 22.8267 71.9836 22.64 71.7303 22.52C71.4903 22.4 70.8503 22.2533 69.8103 22.08C68.7836 21.9067 68.0169 21.6133 67.5103 21.2C67.0036 20.7867 66.7503 20.0533 66.7503 19C66.7503 17.9333 67.1103 17.1333 67.8303 16.6C68.5503 16.0533 69.4769 15.78 70.6103 15.78C71.3969 15.78 72.4703 15.9067 73.8303 16.16L74.4903 16.28L74.4503 18.5ZM76.7039 26V16H79.3839V26H76.7039ZM76.7039 14.72V12H79.3839V14.72H76.7039ZM90.9201 27.24C90.9201 28.3867 90.4801 29.2333 89.6001 29.78C88.7201 30.3267 87.5268 30.6 86.0201 30.6C84.5268 30.6 83.3735 30.4 82.5601 30C81.7601 29.6 81.3601 28.8733 81.3601 27.82C81.3601 26.98 81.8401 26.1867 82.8001 25.44C82.3068 25.1067 82.0601 24.6 82.0601 23.92C82.0601 23.6533 82.2601 23.2133 82.6601 22.6L82.8401 22.32C81.9335 21.6667 81.4801 20.7067 81.4801 19.44C81.4801 18.16 81.8601 17.2333 82.6201 16.66C83.3935 16.0867 84.4135 15.8 85.6801 15.8C86.2535 15.8 86.8201 15.8667 87.3801 16L87.7001 16.06L90.9201 15.96V18.1L89.4201 17.98C89.7135 18.4333 89.8601 18.8867 89.8601 19.34C89.8601 20.6733 89.5201 21.5933 88.8401 22.1C88.1601 22.6067 87.0935 22.86 85.6401 22.86C85.3335 22.86 85.0601 22.8333 84.8201 22.78C84.6868 23.1267 84.6201 23.4133 84.6201 23.64C84.6201 23.8533 84.7335 24 84.9601 24.08C85.1868 24.16 85.7201 24.2067 86.5601 24.22C88.2401 24.2333 89.3868 24.46 90.0001 24.9C90.6135 25.3267 90.9201 26.1067 90.9201 27.24ZM84.0001 27.54C84.0001 28.1133 84.7001 28.4 86.1001 28.4C87.5135 28.4 88.2201 28.0667 88.2201 27.4C88.2201 27.04 88.1001 26.8067 87.8601 26.7C87.6201 26.6067 87.1135 26.5533 86.3401 26.54L84.5401 26.4C84.1801 26.76 84.0001 27.14 84.0001 27.54ZM84.1601 19.36C84.1601 20.3333 84.6668 20.82 85.6801 20.82C86.7068 20.82 87.2201 20.3333 87.2201 19.36C87.2201 18.3733 86.7068 17.88 85.6801 17.88C84.6668 17.88 84.1601 18.3733 84.1601 19.36ZM95.2237 26H92.5437V16H95.2037V16.56C96.1104 16.0267 96.9437 15.76 97.7037 15.76C99.037 15.76 99.957 16.1533 100.464 16.94C100.97 17.7267 101.224 18.94 101.224 20.58V26H98.5437V20.66C98.5437 19.8067 98.4437 19.18 98.2437 18.78C98.0437 18.3667 97.6437 18.16 97.0437 18.16C96.497 18.16 95.9704 18.2533 95.4637 18.44L95.2237 18.52V26ZM110.873 21.46C110.873 23.0467 111.68 23.84 113.293 23.84C114.906 23.84 115.713 23.0467 115.713 21.46V12.4H118.473V21.4C118.473 23.0667 118.04 24.2933 117.173 25.08C116.32 25.8533 115.026 26.24 113.293 26.24C111.56 26.24 110.26 25.8533 109.393 25.08C108.54 24.2933 108.113 23.0667 108.113 21.4V12.4H110.873V21.46ZM123.079 12.4L125.599 17.4L128.179 12.4H131.039L127.119 19.34L131.039 26H127.979L125.459 21.3L122.879 26H120.019L123.939 19.48L120.019 12.4H123.079ZM131.846 25.84L137.606 11.64L139.966 12.48L134.206 26.68L131.846 25.84ZM144.662 21.46C144.662 23.0467 145.469 23.84 147.082 23.84C148.695 23.84 149.502 23.0467 149.502 21.46V12.4H152.262V21.4C152.262 23.0667 151.829 24.2933 150.962 25.08C150.109 25.8533 148.815 26.24 147.082 26.24C145.349 26.24 144.049 25.8533 143.182 25.08C142.329 24.2933 141.902 23.0667 141.902 21.4V12.4H144.662V21.46ZM155.108 26V12.4H157.868V26H155.108Z" fill="#F4F9FD"/>
<path d="M43.0811 28.2H159.348V28.8H43.0811V28.2Z" fill="#F4F9FD"/>
</svg>
