<svg width="158" height="36" viewBox="0 0 158 36" fill="none" xmlns="http://www.w3.org/2000/svg">
<rect x="1" y="1" width="156" height="34" rx="17" fill="#121212" fill-opacity="0.21"/>
<rect x="1" y="1" width="156" height="34" rx="17" stroke="#911681" stroke-width="2"/>
<rect x="29.2402" y="7.18323" width="17.813" height="17.813" transform="rotate(45 29.2402 7.18323)" fill="#33006F"/>
<path d="M16.6062 19.5435L29.2357 6.91323L33.8588 24.1669L16.6062 19.5435Z" fill="#DA53C9"/>
<path d="M41.9316 19.71L29.2631 6.9384L24.5746 24.4364L41.9316 19.71Z" fill="#DA53C9"/>
<rect x="29.2402" y="8.86255" width="15.4379" height="15.4379" transform="rotate(45 29.2402 8.86255)" fill="#911681"/>
<path d="M22.7329 17.4696C22.7329 17.4696 20.2138 19.5689 20.2138 19.9888C20.2138 20.4086 21.6833 21.4583 21.6833 21.4583M34.6989 16.8399L37.428 19.569L35.9585 21.0385M34.489 22.5079L35.1187 21.8782" stroke="white" stroke-width="0.593767"/>
<path d="M46.48 25V11.4H55.28V13.8H49.24V16.98H54.08V19.34H49.24V22.6H55.28V25H46.48ZM59.9942 25H57.3142V15H59.9742V15.56C60.8809 15.0267 61.7142 14.76 62.4742 14.76C63.8076 14.76 64.7276 15.1533 65.2342 15.94C65.7409 16.7267 65.9942 17.94 65.9942 19.58V25H63.3142V19.66C63.3142 18.8067 63.2142 18.18 63.0142 17.78C62.8142 17.3667 62.4142 17.16 61.8142 17.16C61.2676 17.16 60.7409 17.2533 60.2342 17.44L59.9942 17.52V25ZM77.4289 26.24C77.4289 27.3867 76.9889 28.2333 76.1089 28.78C75.2289 29.3267 74.0356 29.6 72.5289 29.6C71.0356 29.6 69.8822 29.4 69.0689 29C68.2689 28.6 67.8689 27.8733 67.8689 26.82C67.8689 25.98 68.3489 25.1867 69.3089 24.44C68.8156 24.1067 68.5689 23.6 68.5689 22.92C68.5689 22.6533 68.7689 22.2133 69.1689 21.6L69.3489 21.32C68.4422 20.6667 67.9889 19.7067 67.9889 18.44C67.9889 17.16 68.3689 16.2333 69.1289 15.66C69.9022 15.0867 70.9222 14.8 72.1889 14.8C72.7622 14.8 73.3289 14.8667 73.8889 15L74.2089 15.06L77.4289 14.96V17.1L75.9289 16.98C76.2222 17.4333 76.3689 17.8867 76.3689 18.34C76.3689 19.6733 76.0289 20.5933 75.3489 21.1C74.6689 21.6067 73.6022 21.86 72.1489 21.86C71.8422 21.86 71.5689 21.8333 71.3289 21.78C71.1956 22.1267 71.1289 22.4133 71.1289 22.64C71.1289 22.8533 71.2422 23 71.4689 23.08C71.6956 23.16 72.2289 23.2067 73.0689 23.22C74.7489 23.2333 75.8956 23.46 76.5089 23.9C77.1222 24.3267 77.4289 25.1067 77.4289 26.24ZM70.5089 26.54C70.5089 27.1133 71.2089 27.4 72.6089 27.4C74.0222 27.4 74.7289 27.0667 74.7289 26.4C74.7289 26.04 74.6089 25.8067 74.3689 25.7C74.1289 25.6067 73.6222 25.5533 72.8489 25.54L71.0489 25.4C70.6889 25.76 70.5089 26.14 70.5089 26.54ZM70.6689 18.36C70.6689 19.3333 71.1756 19.82 72.1889 19.82C73.2156 19.82 73.7289 19.3333 73.7289 18.36C73.7289 17.3733 73.2156 16.88 72.1889 16.88C71.1756 16.88 70.6689 17.3733 70.6689 18.36ZM79.0525 25V15H81.7325V25H79.0525ZM79.0525 13.72V11H81.7325V13.72H79.0525ZM86.8888 25H84.2088V15H86.8688V15.56C87.7754 15.0267 88.6088 14.76 89.3688 14.76C90.7021 14.76 91.6221 15.1533 92.1288 15.94C92.6354 16.7267 92.8888 17.94 92.8888 19.58V25H90.2088V19.66C90.2088 18.8067 90.1088 18.18 89.9088 17.78C89.7088 17.3667 89.3088 17.16 88.7088 17.16C88.1621 17.16 87.6354 17.2533 87.1288 17.44L86.8888 17.52V25ZM97.4634 21.14C97.4768 21.7533 97.6368 22.2 97.9434 22.48C98.2634 22.7467 98.7168 22.88 99.3034 22.88C100.543 22.88 101.65 22.84 102.623 22.76L103.183 22.7L103.223 24.68C101.69 25.0533 100.303 25.24 99.0634 25.24C97.5568 25.24 96.4634 24.84 95.7834 24.04C95.1034 23.24 94.7634 21.94 94.7634 20.14C94.7634 16.5533 96.2368 14.76 99.1834 14.76C102.09 14.76 103.543 16.2667 103.543 19.28L103.343 21.14H97.4634ZM100.903 19.1C100.903 18.3 100.777 17.7467 100.523 17.44C100.27 17.12 99.8234 16.96 99.1834 16.96C98.5568 16.96 98.1101 17.1267 97.8434 17.46C97.5901 17.78 97.4568 18.3267 97.4434 19.1H100.903ZM107.659 21.14C107.672 21.7533 107.832 22.2 108.139 22.48C108.459 22.7467 108.912 22.88 109.499 22.88C110.739 22.88 111.845 22.84 112.819 22.76L113.379 22.7L113.419 24.68C111.885 25.0533 110.499 25.24 109.259 25.24C107.752 25.24 106.659 24.84 105.979 24.04C105.299 23.24 104.959 21.94 104.959 20.14C104.959 16.5533 106.432 14.76 109.379 14.76C112.285 14.76 113.739 16.2667 113.739 19.28L113.539 21.14H107.659ZM111.099 19.1C111.099 18.3 110.972 17.7467 110.719 17.44C110.465 17.12 110.019 16.96 109.379 16.96C108.752 16.96 108.305 17.1267 108.039 17.46C107.785 17.78 107.652 18.3267 107.639 19.1H111.099ZM115.654 25V15H118.314V16.06C119.434 15.3933 120.501 14.96 121.514 14.76V17.46C120.434 17.6867 119.507 17.92 118.734 18.16L118.334 18.3V25H115.654ZM123.095 25V15H125.775V25H123.095ZM123.095 13.72V11H125.775V13.72H123.095ZM130.932 25H128.252V15H130.912V15.56C131.818 15.0267 132.652 14.76 133.412 14.76C134.745 14.76 135.665 15.1533 136.172 15.94C136.678 16.7267 136.932 17.94 136.932 19.58V25H134.252V19.66C134.252 18.8067 134.152 18.18 133.952 17.78C133.752 17.3667 133.352 17.16 132.752 17.16C132.205 17.16 131.678 17.2533 131.172 17.44L130.932 17.52V25ZM148.366 26.24C148.366 27.3867 147.926 28.2333 147.046 28.78C146.166 29.3267 144.973 29.6 143.466 29.6C141.973 29.6 140.82 29.4 140.006 29C139.206 28.6 138.806 27.8733 138.806 26.82C138.806 25.98 139.286 25.1867 140.246 24.44C139.753 24.1067 139.506 23.6 139.506 22.92C139.506 22.6533 139.706 22.2133 140.106 21.6L140.286 21.32C139.38 20.6667 138.926 19.7067 138.926 18.44C138.926 17.16 139.306 16.2333 140.066 15.66C140.84 15.0867 141.86 14.8 143.126 14.8C143.7 14.8 144.266 14.8667 144.826 15L145.146 15.06L148.366 14.96V17.1L146.866 16.98C147.16 17.4333 147.306 17.8867 147.306 18.34C147.306 19.6733 146.966 20.5933 146.286 21.1C145.606 21.6067 144.54 21.86 143.086 21.86C142.78 21.86 142.506 21.8333 142.266 21.78C142.133 22.1267 142.066 22.4133 142.066 22.64C142.066 22.8533 142.18 23 142.406 23.08C142.633 23.16 143.166 23.2067 144.006 23.22C145.686 23.2333 146.833 23.46 147.446 23.9C148.06 24.3267 148.366 25.1067 148.366 26.24ZM141.446 26.54C141.446 27.1133 142.146 27.4 143.546 27.4C144.96 27.4 145.666 27.0667 145.666 26.4C145.666 26.04 145.546 25.8067 145.306 25.7C145.066 25.6067 144.56 25.5533 143.786 25.54L141.986 25.4C141.626 25.76 141.446 26.14 141.446 26.54ZM141.606 18.36C141.606 19.3333 142.113 19.82 143.126 19.82C144.153 19.82 144.666 19.3333 144.666 18.36C144.666 17.3733 144.153 16.88 143.126 16.88C142.113 16.88 141.606 17.3733 141.606 18.36Z" fill="#F4F9FD"/>
<path d="M45 27.2H148.746V27.8H45V27.2Z" fill="#F4F9FD"/>
</svg>
