<svg width="117" height="35" viewBox="0 0 117 35" fill="none" xmlns="http://www.w3.org/2000/svg">
<rect x="1" y="1" width="115" height="33" rx="16.5" fill="#121212" fill-opacity="0.21"/>
<rect x="1" y="1" width="115" height="33" rx="16.5" stroke="#911681" stroke-width="2"/>
<rect x="86.2402" y="6.18311" width="17.813" height="17.813" transform="rotate(45 86.2402 6.18311)" fill="#33006F"/>
<path d="M73.6062 18.5435L86.2357 5.91323L90.8588 23.1669L73.6062 18.5435Z" fill="#DA53C9"/>
<path d="M98.9316 18.71L86.2631 5.9384L81.5746 23.4364L98.9316 18.71Z" fill="#DA53C9"/>
<rect x="86.2402" y="7.86255" width="15.4379" height="15.4379" transform="rotate(45 86.2402 7.86255)" fill="#911681"/>
<path d="M79.7329 16.4695C79.7329 16.4695 77.2138 18.5688 77.2138 18.9887C77.2138 19.4085 78.6833 20.4581 78.6833 20.4581M91.6989 15.8398L94.428 18.5688L92.9585 20.0383M91.489 21.5078L92.1187 20.878" stroke="white" stroke-width="0.593767"/>
<path d="M21.3 20.8C21.7 21.4933 22.44 21.84 23.52 21.84C24.6 21.84 25.3333 21.4933 25.72 20.8C26.12 20.0933 26.32 18.92 26.32 17.28C26.32 15.6267 26.12 14.4267 25.72 13.68C25.32 12.9333 24.5867 12.56 23.52 12.56C22.4533 12.56 21.72 12.9333 21.32 13.68C20.92 14.4267 20.72 15.6267 20.72 17.28C20.72 18.92 20.9133 20.0933 21.3 20.8ZM27.88 22.56C27.04 23.68 25.5867 24.24 23.52 24.24C21.4533 24.24 19.9933 23.68 19.14 22.56C18.3 21.4267 17.88 19.66 17.88 17.26C17.88 14.86 18.3 13.08 19.14 11.92C19.9933 10.7467 21.4533 10.16 23.52 10.16C25.5867 10.16 27.04 10.7467 27.88 11.92C28.7333 13.08 29.16 14.86 29.16 17.26C29.16 19.66 28.7333 21.4267 27.88 22.56ZM36.8269 16.28H34.3669V20.38C34.3669 20.78 34.3735 21.0667 34.3869 21.24C34.4135 21.4 34.4869 21.54 34.6069 21.66C34.7402 21.78 34.9402 21.84 35.2069 21.84L36.7269 21.8L36.8469 23.94C35.9535 24.14 35.2735 24.24 34.8069 24.24C33.6069 24.24 32.7869 23.9733 32.3469 23.44C31.9069 22.8933 31.6869 21.8933 31.6869 20.44V16.28H30.5069V14H31.6869V11.22H34.3669V14H36.8269V16.28ZM41.252 24H38.572V10H41.252V14.48C42.172 14 42.9987 13.76 43.732 13.76C45.0654 13.76 45.9854 14.1533 46.492 14.94C46.9987 15.7267 47.252 16.94 47.252 18.58V24H44.572V18.64C44.572 17.8 44.472 17.18 44.272 16.78C44.072 16.3667 43.672 16.16 43.072 16.16C42.552 16.16 42.032 16.24 41.512 16.4L41.252 16.48V24ZM51.8267 20.14C51.8401 20.7533 52.0001 21.2 52.3067 21.48C52.6267 21.7467 53.0801 21.88 53.6667 21.88C54.9067 21.88 56.0134 21.84 56.9867 21.76L57.5467 21.7L57.5867 23.68C56.0534 24.0533 54.6667 24.24 53.4267 24.24C51.9201 24.24 50.8267 23.84 50.1467 23.04C49.4667 22.24 49.1267 20.94 49.1267 19.14C49.1267 15.5533 50.6001 13.76 53.5467 13.76C56.4534 13.76 57.9067 15.2667 57.9067 18.28L57.7067 20.14H51.8267ZM55.2667 18.1C55.2667 17.3 55.1401 16.7467 54.8867 16.44C54.6334 16.12 54.1867 15.96 53.5467 15.96C52.9201 15.96 52.4734 16.1267 52.2067 16.46C51.9534 16.78 51.8201 17.3267 51.8067 18.1H55.2667ZM59.822 24V14H62.482V15.06C63.602 14.3933 64.6687 13.96 65.682 13.76V16.46C64.602 16.6867 63.6754 16.92 62.902 17.16L62.502 17.3V24H59.822Z" fill="#F4F9FD"/>
<path d="M17 26.2H66.022V26.8H17V26.2Z" fill="#F4F9FD"/>
</svg>
