<svg width="127" height="36" viewBox="0 0 127 36" fill="none" xmlns="http://www.w3.org/2000/svg">
<rect x="1" y="1" width="125" height="34" rx="17" fill="#121212" fill-opacity="0.21"/>
<rect x="1" y="1" width="125" height="34" rx="17" stroke="#911681" stroke-width="2"/>
<path d="M94.5 32L83 22L94.5 12L106 22L94.5 32Z" fill="#33006F"/>
<path d="M106 9L106 22L95 17L83 22L83 9L106 9Z" fill="#DA53C9"/>
<path d="M104.5 11H85V21.5L94.5 29.5L104.5 21.5V11Z" fill="#911681"/>
<path d="M87 18C87 18 86.7033 21.2031 87.0001 21.5C87.297 21.7969 89.5001 23.5 89.5001 23.5M99.1479 12H103.007V14.0782M103.007 16.1564V15.2657" stroke="white" stroke-width="0.593767"/>
<path d="M15.48 20.04H13.24V24H10.48V10.4H15.48C18.7067 10.4 20.32 11.9733 20.32 15.12C20.32 16.7067 19.9067 17.9267 19.08 18.78C18.2667 19.62 17.0667 20.04 15.48 20.04ZM13.24 17.68H15.46C16.8333 17.68 17.52 16.8267 17.52 15.12C17.52 14.28 17.3533 13.68 17.02 13.32C16.6867 12.9467 16.1667 12.76 15.46 12.76H13.24V17.68ZM22.0173 24V14H24.6773V15.06C25.7973 14.3933 26.864 13.96 27.8773 13.76V16.46C26.7973 16.6867 25.8707 16.92 25.0973 17.16L24.6973 17.3V24H22.0173ZM29.9988 15.14C30.7054 14.22 31.8854 13.76 33.5388 13.76C35.1921 13.76 36.3721 14.22 37.0788 15.14C37.7854 16.0467 38.1388 17.3267 38.1388 18.98C38.1388 22.4867 36.6054 24.24 33.5388 24.24C30.4721 24.24 28.9388 22.4867 28.9388 18.98C28.9388 17.3267 29.2921 16.0467 29.9988 15.14ZM32.0588 21.24C32.3388 21.72 32.8321 21.96 33.5388 21.96C34.2454 21.96 34.7321 21.72 34.9988 21.24C35.2788 20.76 35.4188 20.0067 35.4188 18.98C35.4188 17.9533 35.2788 17.2067 34.9988 16.74C34.7321 16.2733 34.2454 16.04 33.5388 16.04C32.8321 16.04 32.3388 16.2733 32.0588 16.74C31.7921 17.2067 31.6588 17.9533 31.6588 18.98C31.6588 20.0067 31.7921 20.76 32.0588 21.24ZM48.6033 10V24H45.9433V23.58C45.0099 24.02 44.2033 24.24 43.5233 24.24C42.0699 24.24 41.0566 23.82 40.4833 22.98C39.9099 22.14 39.6233 20.8133 39.6233 19C39.6233 17.1733 39.9633 15.8467 40.6433 15.02C41.3366 14.18 42.3766 13.76 43.7633 13.76C44.1899 13.76 44.7833 13.8267 45.5433 13.96L45.9233 14.04V10H48.6033ZM45.6433 21.6L45.9233 21.54V16.28C45.1899 16.1467 44.5366 16.08 43.9633 16.08C42.8833 16.08 42.3433 17.04 42.3433 18.96C42.3433 20 42.4633 20.74 42.7033 21.18C42.9433 21.62 43.3366 21.84 43.8833 21.84C44.4433 21.84 45.0299 21.76 45.6433 21.6ZM56.9798 14H59.6598V24H56.9998V23.44C56.0398 23.9733 55.2065 24.24 54.4998 24.24C53.1132 24.24 52.1798 23.86 51.6998 23.1C51.2198 22.3267 50.9798 21.04 50.9798 19.24V14H53.6598V19.28C53.6598 20.2667 53.7398 20.94 53.8998 21.3C54.0598 21.66 54.4465 21.84 55.0598 21.84C55.6465 21.84 56.1998 21.7467 56.7198 21.56L56.9798 21.48V14ZM65.8745 13.76C66.5679 13.76 67.4545 13.8667 68.5345 14.08L69.0745 14.2L68.9945 16.32C67.9412 16.2133 67.1612 16.16 66.6545 16.16C65.7345 16.16 65.1212 16.36 64.8145 16.76C64.5212 17.1467 64.3745 17.8867 64.3745 18.98C64.3745 20.0733 64.5212 20.8267 64.8145 21.24C65.1212 21.64 65.7412 21.84 66.6745 21.84L68.9945 21.68L69.0745 23.82C67.6479 24.1 66.5612 24.24 65.8145 24.24C64.3345 24.24 63.2679 23.8267 62.6145 23C61.9745 22.16 61.6545 20.82 61.6545 18.98C61.6545 17.14 61.9879 15.8133 62.6545 15C63.3212 14.1733 64.3945 13.76 65.8745 13.76ZM76.6003 16.28H74.1403V20.38C74.1403 20.78 74.147 21.0667 74.1603 21.24C74.187 21.4 74.2603 21.54 74.3803 21.66C74.5136 21.78 74.7136 21.84 74.9803 21.84L76.5003 21.8L76.6203 23.94C75.727 24.14 75.047 24.24 74.5803 24.24C73.3803 24.24 72.5603 23.9733 72.1203 23.44C71.6803 22.8933 71.4603 21.8933 71.4603 20.44V16.28H70.2803V14H71.4603V11.22H74.1403V14H76.6003V16.28Z" fill="#F4F9FD"/>
<path d="M9 26.2H77.1003V26.8H9V26.2Z" fill="#F4F9FD"/>
</svg>
