<svg width="65" height="70" viewBox="0 0 65 70" fill="none" xmlns="http://www.w3.org/2000/svg">
<path fill-rule="evenodd" clip-rule="evenodd" d="M18.908 0.0476548C19.2414 0.126111 19.6926 0.263412 19.9083 0.381097C20.1241 0.498781 20.4575 0.910674 20.634 1.30296C20.889 1.79331 20.9871 2.4798 20.9871 5.14732L43.6414 5.04925L43.7394 3.26437C43.7983 2.04829 43.9356 1.34219 44.1709 0.96952C44.3671 0.675308 44.8182 0.322253 45.1517 0.165341C45.6028 -0.0111863 46.0147 -0.0504145 46.4854 0.0672701C46.8581 0.145726 47.4073 0.498778 47.7015 0.812603C48.2115 1.38141 48.2507 1.51871 48.2507 5.14732H51.6243C54.0172 5.14732 55.3706 5.22578 56.1944 5.44153C56.8417 5.61806 57.94 6.02995 58.6461 6.383C59.4111 6.75567 60.431 7.52062 61.2156 8.28557C61.9217 8.99168 62.7651 9.992 63.0789 10.5412C63.3928 11.0708 63.8635 12.0907 64.6284 14.0717L64.6677 36.8829C64.7265 56.8893 64.6873 59.8314 64.4127 61.0083C64.2558 61.734 63.8439 62.8912 63.4908 63.5973C63.0789 64.4603 62.3924 65.3626 61.3921 66.3629C60.431 67.3436 59.4896 68.0693 58.6854 68.4812C58.0185 68.8147 56.822 69.2658 56.0375 69.4815C54.6645 69.8738 54.1349 69.8738 9.12055 69.7758L7.6495 69.2462C6.84532 68.952 5.5704 68.2851 4.82507 67.7751C4.07973 67.2455 3.07941 66.3433 2.58906 65.7549C2.11832 65.1664 1.47106 64.1857 1.17685 63.5973C0.882634 63.0089 0.490352 61.989 0.313825 61.3417C0.0392279 60.3022 0 57.5366 0 37.5106C0 17.8376 0.0392282 14.6994 0.294211 13.6795C0.470738 13.0322 0.882634 11.9338 1.21607 11.2277C1.62797 10.3647 2.29485 9.48203 3.31478 8.4621C4.3151 7.46178 5.21735 6.77529 6.08037 6.34378C6.78648 6.01034 7.84564 5.59844 8.43406 5.44153C9.19901 5.24539 10.5524 5.14732 16.5739 5.14732L16.417 3.57819C16.2993 2.28366 16.3385 1.89138 16.6131 1.30296C16.8289 0.89106 17.2408 0.439937 17.6331 0.243796C18.0842 0.00842658 18.4765 -0.0504157 18.908 0.0476548ZM10.827 13.346C10.3759 13.5814 9.68936 14.111 9.29708 14.5229C8.9048 14.9151 8.35561 15.6997 8.06139 16.2293L7.55143 17.21V57.615C8.21831 58.988 8.74789 59.7726 9.15978 60.2433C9.59129 60.7337 10.3955 61.3221 11.082 61.6555L12.2588 62.2243L52.6638 62.1263C54.0368 61.4594 54.8214 60.8906 55.2921 60.4198C55.7629 59.9491 56.3905 59.0861 56.6651 58.4977L57.1751 57.4189C57.1751 19.4852 57.1555 17.72 56.8416 16.8177C56.6651 16.2881 56.1159 15.4055 55.6452 14.8563C55.1745 14.3267 54.3114 13.6206 53.723 13.2872C52.7619 12.7576 52.4677 12.6987 50.4082 12.6399L48.1526 12.5614C47.8976 14.1894 47.7407 14.8171 47.6426 15.0132C47.5446 15.1897 47.1719 15.5232 46.8188 15.7389C46.4854 15.9547 45.9558 16.1312 45.642 16.1312C45.3478 16.1312 44.8378 15.9939 44.524 15.837C44.2102 15.6801 43.7983 15.2682 43.6414 14.9544C43.4845 14.6405 43.3472 13.9737 43.3472 13.4833V12.6007H21.3794C21.3794 13.7383 21.2813 14.3659 21.144 14.7386C21.0067 15.0917 20.6144 15.5624 20.3006 15.7585C19.9671 15.9547 19.3787 16.1312 18.9668 16.1312C18.4176 16.1312 18.0646 15.9743 17.535 15.5036C16.9073 14.9348 16.8093 14.7386 16.7504 13.7383L16.672 12.6007C13.5533 12.6203 12.4353 12.6987 12.1607 12.7772C11.8861 12.8557 11.2781 13.1303 10.827 13.346Z" fill="#59A1B5"/>
<path fill-rule="evenodd" clip-rule="evenodd" d="M43.6807 4.16694C43.7199 4.44154 43.7199 4.77497 43.661 4.91227C43.563 5.0888 41.1308 5.12803 20.8891 5.04957L43.5434 4.9515L43.563 4.30424C43.5826 3.79427 43.6022 3.75504 43.6807 4.16694ZM13.5338 5.02996C15.201 5.02996 15.9071 5.06919 15.1029 5.0888C14.2987 5.12803 12.9258 5.12803 12.0627 5.0888C11.1997 5.06919 11.8666 5.02996 13.5338 5.02996ZM51.1929 5.02996C52.8601 5.02996 53.5662 5.06919 52.762 5.0888C51.9578 5.12803 50.5848 5.12803 49.7218 5.0888C48.8588 5.06919 49.5257 5.02996 51.1929 5.02996ZM16.672 9.65888V12.601L14.3576 12.6598C12.3177 12.7187 11.945 12.7775 11.0232 13.2483C10.474 13.5425 9.68942 14.1113 9.29714 14.5036C8.90486 14.9155 8.35567 15.6804 7.55149 17.2103V57.6153L7.983 58.498C8.21837 58.9883 8.74795 59.7729 9.15984 60.2436C9.59135 60.734 10.3955 61.3224 12.2589 62.2247L52.6639 62.1266L53.5465 61.6951C54.0369 61.4597 54.8215 60.8909 55.2922 60.4202C55.7629 59.9494 56.3906 59.0864 57.1752 57.4192V37.609C57.1752 19.4855 57.1555 17.7203 56.8417 16.818C56.6652 16.2688 56.116 15.3862 55.6453 14.8566C55.1745 14.3074 54.3115 13.6209 53.7231 13.2875C52.7424 12.7383 52.507 12.6991 48.0546 12.601V13.2287C48.0546 13.5817 48.0154 13.8367 47.9565 13.7778C47.8977 13.719 47.9173 12.7579 48.1527 9.61965L51.6832 9.69812C54.8607 9.75696 55.3118 9.79618 56.1356 10.2081C56.6652 10.4434 57.489 11.0319 57.9989 11.5026C58.5874 12.0322 59.1562 12.8364 60.1173 14.8566V59.969L59.6269 61.1459C59.3327 61.852 58.8031 62.6758 58.2539 63.2054C57.7636 63.6957 56.979 64.3037 56.4887 64.5391C55.9983 64.7745 55.1157 65.0491 54.5272 65.1668C53.8211 65.3041 46.0932 65.3629 32.3633 65.3629C17.9666 65.3629 10.9055 65.3041 10.1013 65.1472C9.45406 65.0295 8.49297 64.696 7.96339 64.4214C7.43381 64.1272 6.68847 63.5388 6.3158 63.1073C5.92352 62.6758 5.39394 61.8324 4.60938 60.1652V37.5109C4.60938 16.6219 4.62899 14.7782 4.94281 13.974C5.11934 13.4836 5.57047 12.7187 5.92352 12.2676C6.27657 11.8164 6.82577 11.2476 7.15921 10.9926C7.47303 10.7573 8.23798 10.3454 8.82641 10.11C9.80711 9.71772 10.2386 9.65888 16.672 9.65888ZM21.1833 9.65888H43.5434V10.1885C43.5434 10.5023 43.4845 11.1496 43.2491 12.601L21.1833 12.6991V9.65888Z" fill="#C5EEFF"/>
<path d="M29.6171 23.4079C28.8129 23.6237 27.5184 24.0944 26.773 24.4671C26.0277 24.8397 24.8312 25.6243 24.1251 26.1931C23.419 26.7619 22.4187 27.8015 21.8891 28.5076C21.3792 29.1941 20.7515 30.1552 20.4965 30.6455C20.2415 31.1359 19.8493 32.097 19.6139 32.8031C19.2805 33.7838 19.1432 34.7056 19.0647 36.7259C18.9862 38.8442 19.0451 39.6876 19.3197 40.9429C19.5158 41.8059 20.0454 43.2574 20.5161 44.1792C21.0653 45.2776 21.8107 46.3368 22.6933 47.2979C23.419 48.0824 24.6547 49.1416 25.4001 49.6516C26.1846 50.1812 27.4988 50.8088 28.4402 51.1226C29.3621 51.4168 30.8135 51.7503 31.6766 51.868C32.5396 51.966 33.8537 52.0053 34.6187 51.9268C35.3836 51.868 36.5212 51.6718 37.1685 51.5149C37.8158 51.3384 39.0515 50.8676 39.9145 50.4557C41.0325 49.9262 41.9347 49.2985 43.0331 48.2786C43.8765 47.4744 44.9161 46.2976 45.328 45.6503C45.936 44.7284 46.0929 44.2773 46.0929 43.5908C46.0929 43.1005 45.9556 42.512 45.7987 42.2571C45.6418 42.0217 45.2299 41.6882 44.9161 41.5313C44.6023 41.3744 44.1119 41.2371 43.8373 41.2371C43.5627 41.2371 43.0724 41.3744 42.7585 41.5313C42.4055 41.7079 41.9347 42.2374 41.6013 42.8455C41.2875 43.4143 40.5618 44.3361 39.9733 44.8853C39.4045 45.4345 38.463 46.121 37.9138 46.3956C37.345 46.6898 36.4624 47.0233 35.9524 47.141C35.4229 47.239 34.3049 47.3371 33.4418 47.3371C32.5788 47.3371 31.4412 47.239 30.892 47.1214C30.3624 47.0037 29.4209 46.6702 28.8325 46.376C28.2441 46.0818 27.2242 45.3561 26.5769 44.7481C25.9296 44.14 25.1255 43.1201 24.7724 42.4924C24.439 41.8648 24.0075 40.7664 23.8505 40.0603C23.674 39.3542 23.5367 38.1969 23.5367 37.4516C23.5367 36.7259 23.674 35.549 23.8309 34.8037C23.9878 34.078 24.439 32.96 24.8312 32.3127C25.2039 31.6654 25.9296 30.7044 26.4396 30.1944C26.9496 29.6844 27.9303 28.9587 28.6364 28.6056C29.3425 28.2526 30.4409 27.8407 31.0881 27.7034C31.7943 27.5661 33.0299 27.4876 34.1283 27.5465C35.7759 27.6249 36.1682 27.7034 37.5216 28.3507C38.3454 28.7429 39.4438 29.4491 39.9341 29.9002C40.4441 30.3709 41.1306 31.2143 41.464 31.8027C41.7974 32.3912 42.2878 33.0384 42.5624 33.2346C42.8762 33.4699 43.3666 33.6072 43.9158 33.5876C44.6219 33.5876 44.8769 33.4699 45.426 32.9011C45.9752 32.3323 46.0929 32.0577 46.0929 31.3712C46.0929 30.8024 45.8968 30.214 45.4849 29.4687C45.1318 28.8802 44.1904 27.723 43.3666 26.9188C42.2093 25.7616 41.464 25.232 40.0126 24.5063C38.973 23.9767 37.5412 23.4471 36.7762 23.2902C36.0113 23.1333 34.4422 23.0156 33.2457 23.0156C31.755 23.0156 30.637 23.1333 29.6171 23.4079Z" fill="#59A1B5"/>
</svg>
