<svg width="66" height="71" viewBox="0 0 66 71" fill="none" xmlns="http://www.w3.org/2000/svg">
<path fill-rule="evenodd" clip-rule="evenodd" d="M19.408 1.00078C19.7414 1.07924 20.1926 1.21654 20.4083 1.33422C20.6241 1.45191 20.9575 1.8638 21.134 2.25608C21.389 2.74643 21.4871 3.43293 21.4871 6.10044L44.1414 6.00237L44.2394 4.21749C44.2983 3.00142 44.4356 2.29531 44.6709 1.92264C44.8671 1.62843 45.3182 1.27538 45.6516 1.11847C46.1028 0.941939 46.5147 0.902711 46.9854 1.0204C47.3581 1.09885 47.9073 1.4519 48.2015 1.76573C48.7114 2.33454 48.7507 2.47184 48.7507 6.10044H52.1243C54.5172 6.10044 55.8706 6.1789 56.6944 6.39466C57.3417 6.57118 58.44 6.98308 59.1461 7.33613C59.9111 7.7088 60.931 8.47375 61.7156 9.2387C62.4217 9.94481 63.2651 10.9451 63.5789 11.4943C63.8928 12.0239 64.3635 13.0438 65.1284 15.0249L65.1677 37.836C65.2265 57.8424 65.1873 60.7845 64.9127 61.9614C64.7558 62.6871 64.3439 63.8443 63.9908 64.5504C63.5789 65.4135 62.8924 66.3157 61.8921 67.316C60.931 68.2967 59.9896 69.0225 59.1854 69.4344C58.5185 69.7678 57.322 70.2189 56.5375 70.4347C55.1645 70.827 54.6349 70.827 9.62055 70.7289L8.1495 70.1993C7.34532 69.9051 6.0704 69.2382 5.32507 68.7282C4.57973 68.1987 3.57941 67.2964 3.08906 66.708C2.61832 66.1196 1.97106 65.1389 1.67685 64.5504C1.38263 63.962 0.990352 62.9421 0.813825 62.2948C0.539228 61.2553 0.5 58.4897 0.5 38.4637C0.5 18.7908 0.539228 15.6525 0.794211 14.6326C0.970738 13.9853 1.38263 12.8869 1.71607 12.1808C2.12797 11.3178 2.79485 10.4352 3.81478 9.41523C4.8151 8.41491 5.71735 7.72842 6.58037 7.29691C7.28648 6.96347 8.34564 6.55157 8.93406 6.39466C9.69901 6.19851 11.0524 6.10044 17.0739 6.10044L16.917 4.53132C16.7993 3.23679 16.8385 2.8445 17.1131 2.25608C17.3289 1.84418 17.7408 1.39306 18.1331 1.19692C18.5842 0.961552 18.9765 0.902709 19.408 1.00078ZM11.327 14.2991C10.8759 14.5345 10.1894 15.0641 9.79708 15.476C9.4048 15.8683 8.85561 16.6528 8.56139 17.1824L8.05143 18.1631V58.5681C8.71831 59.9411 9.24789 60.7257 9.65978 61.1964C10.0913 61.6868 10.8955 62.2752 11.582 62.6086L12.7588 63.1775L53.1638 63.0794C54.5368 62.4125 55.3214 61.8437 55.7921 61.373C56.2629 60.9022 56.8905 60.0392 57.1651 59.4508L57.6751 58.372C57.6751 20.4383 57.6555 18.6731 57.3416 17.7708C57.1651 17.2413 56.6159 16.3586 56.1452 15.8094C55.6745 15.2798 54.8114 14.5737 54.223 14.2403C53.2619 13.7107 52.9677 13.6519 50.9082 13.593L48.6526 13.5146C48.3976 15.1425 48.2407 15.7702 48.1426 15.9663C48.0446 16.1429 47.6719 16.4763 47.3188 16.6921C46.9854 16.9078 46.4558 17.0843 46.142 17.0843C45.8478 17.0843 45.3378 16.947 45.024 16.7901C44.7102 16.6332 44.2983 16.2213 44.1414 15.9075C43.9845 15.5937 43.8472 14.9268 43.8472 14.4364V13.5538H21.8794C21.8794 14.6914 21.7813 15.3191 21.644 15.6917C21.5067 16.0448 21.1144 16.5155 20.8006 16.7117C20.4671 16.9078 19.8787 17.0843 19.4668 17.0843C18.9176 17.0843 18.5646 16.9274 18.035 16.4567C17.4073 15.8879 17.3093 15.6917 17.2504 14.6914L17.172 13.5538C14.0533 13.5734 12.9353 13.6519 12.6607 13.7303C12.3861 13.8088 11.7781 14.0834 11.327 14.2991Z" fill="#2D69F6"/>
<path fill-rule="evenodd" clip-rule="evenodd" d="M44.1807 5.12006C44.2199 5.39466 44.2199 5.7281 44.161 5.8654C44.063 6.04192 41.6308 6.08115 21.3891 6.0027L44.0434 5.90463L44.063 5.25736C44.0826 4.7474 44.1022 4.70817 44.1807 5.12006ZM14.0338 5.98308C15.701 5.98308 16.4071 6.02231 15.6029 6.04193C14.7987 6.08116 13.4258 6.08116 12.5627 6.04193C11.6997 6.02231 12.3666 5.98308 14.0338 5.98308ZM51.6929 5.98308C53.3601 5.98308 54.0662 6.02231 53.262 6.04193C52.4578 6.08116 51.0848 6.08116 50.2218 6.04193C49.3588 6.02231 50.0257 5.98308 51.6929 5.98308ZM17.172 10.612V13.5541L14.8576 13.613C12.8177 13.6718 12.445 13.7306 11.5232 14.2014C10.974 14.4956 10.1894 15.0644 9.79714 15.4567C9.40486 15.8686 8.85567 16.6335 8.05149 18.1634V58.5685L8.483 59.4511C8.71837 59.9415 9.24795 60.726 9.65984 61.1968C10.0914 61.6871 10.8955 62.2755 12.7589 63.1778L53.1639 63.0797L54.0465 62.6482C54.5369 62.4128 55.3215 61.844 55.7922 61.3733C56.2629 60.9025 56.8906 60.0395 57.6752 58.3723V38.5621C57.6752 20.4387 57.6555 18.6734 57.3417 17.7712C57.1652 17.222 56.616 16.3393 56.1453 15.8097C55.6745 15.2605 54.8115 14.5741 54.2231 14.2406C53.2424 13.6914 53.007 13.6522 48.5546 13.5541V14.1818C48.5546 14.5348 48.5154 14.7898 48.4565 14.731C48.3977 14.6721 48.4173 13.711 48.6527 10.5728L52.1832 10.6512C55.3607 10.7101 55.8118 10.7493 56.6356 11.1612C57.1652 11.3966 57.989 11.985 58.4989 12.4557C59.0874 12.9853 59.6562 13.7895 60.6173 15.8097V60.9222L60.1269 62.099C59.8327 62.8051 59.3031 63.6289 58.7539 64.1585C58.2636 64.6488 57.479 65.2569 56.9887 65.4922C56.4983 65.7276 55.6157 66.0022 55.0272 66.1199C54.3211 66.2572 46.5932 66.316 32.8633 66.316C18.4666 66.316 11.4055 66.2572 10.6013 66.1003C9.95406 65.9826 8.99297 65.6492 8.46339 65.3746C7.93381 65.0803 7.18847 64.4919 6.8158 64.0604C6.42352 63.6289 5.89394 62.7855 5.10938 61.1183V38.464C5.10938 17.575 5.12899 15.7313 5.44281 14.9271C5.61934 14.4368 6.07047 13.6718 6.42352 13.2207C6.77657 12.7696 7.32577 12.2007 7.65921 11.9458C7.97303 11.7104 8.73798 11.2985 9.32641 11.0631C10.3071 10.6708 10.7386 10.612 17.172 10.612ZM21.6833 10.612H44.0434V11.1416C44.0434 11.4554 43.9845 12.1027 43.7491 13.5541L21.6833 13.6522V10.612Z" fill="#D3E0FD"/>
<path d="M30.1171 24.361C29.3129 24.5768 28.0184 25.0475 27.273 25.4202C26.5277 25.7929 25.3312 26.5774 24.6251 27.1462C23.919 27.715 22.9187 28.7546 22.3891 29.4607C21.8792 30.1472 21.2515 31.1083 20.9965 31.5986C20.7415 32.089 20.3493 33.0501 20.1139 33.7562C19.7805 34.7369 19.6432 35.6588 19.5647 37.679C19.4862 39.7973 19.5451 40.6407 19.8197 41.896C20.0158 42.7591 20.5454 44.2105 21.0161 45.1324C21.5653 46.2308 22.3107 47.2899 23.1933 48.251C23.919 49.0356 25.1547 50.0947 25.9001 50.6047C26.6846 51.1343 27.9988 51.7619 28.9402 52.0758C29.8621 52.37 31.3135 52.7034 32.1766 52.8211C33.0396 52.9192 34.3537 52.9584 35.1187 52.8799C35.8836 52.8211 37.0212 52.625 37.6685 52.468C38.3158 52.2915 39.5515 51.8208 40.4145 51.4089C41.5325 50.8793 42.4347 50.2516 43.5331 49.2317C44.3765 48.4275 45.4161 47.2507 45.828 46.6034C46.436 45.6816 46.5929 45.2304 46.5929 44.5439C46.5929 44.0536 46.4556 43.4652 46.2987 43.2102C46.1418 42.9748 45.7299 42.6414 45.4161 42.4845C45.1023 42.3275 44.6119 42.1902 44.3373 42.1902C44.0627 42.1902 43.5724 42.3275 43.2585 42.4845C42.9055 42.661 42.4347 43.1906 42.1013 43.7986C41.7875 44.3674 41.0618 45.2893 40.4733 45.8385C39.9045 46.3877 38.963 47.0742 38.4138 47.3488C37.845 47.643 36.9624 47.9764 36.4524 48.0941C35.9229 48.1922 34.8049 48.2902 33.9418 48.2902C33.0788 48.2902 31.9412 48.1922 31.392 48.0745C30.8624 47.9568 29.9209 47.6234 29.3325 47.3291C28.7441 47.0349 27.7242 46.3092 27.0769 45.7012C26.4296 45.0931 25.6255 44.0732 25.2724 43.4456C24.939 42.8179 24.5075 41.7195 24.3505 41.0134C24.174 40.3073 24.0367 39.1501 24.0367 38.4047C24.0367 37.679 24.174 36.5022 24.3309 35.7568C24.4878 35.0311 24.939 33.9131 25.3312 33.2658C25.7039 32.6186 26.4296 31.6575 26.9396 31.1475C27.4496 30.6375 28.4303 29.9118 29.1364 29.5588C29.8425 29.2057 30.9409 28.7938 31.5881 28.6565C32.2943 28.5192 33.5299 28.4408 34.6283 28.4996C36.2759 28.5781 36.6682 28.6565 38.0216 29.3038C38.8454 29.6961 39.9438 30.4022 40.4341 30.8533C40.9441 31.324 41.6306 32.1675 41.964 32.7559C42.2974 33.3443 42.7878 33.9916 43.0624 34.1877C43.3762 34.4231 43.8666 34.5604 44.4158 34.5408C45.1219 34.5408 45.3769 34.4231 45.9261 33.8543C46.4752 33.2854 46.5929 33.0109 46.5929 32.3244C46.5929 31.7556 46.3968 31.1671 45.9849 30.4218C45.6318 29.8334 44.6904 28.6761 43.8666 27.872C42.7093 26.7147 41.964 26.1851 40.5126 25.4594C39.473 24.9298 38.0412 24.4003 37.2762 24.2434C36.5113 24.0864 34.9422 23.9688 33.7457 23.9688C32.255 23.9688 31.137 24.0864 30.1171 24.361Z" fill="#2D69F6"/>
</svg>
