<svg width="1459" height="450" viewBox="0 0 1459 450" fill="none" xmlns="http://www.w3.org/2000/svg">
<g clip-path="url(#clip0_69_6456)">
<path fill-rule="evenodd" clip-rule="evenodd" d="M58.6193 318.324C19.9124 317.512 28.4593 317.511 19.9124 317.511V339.163H4.63228V375.17H0V449.182H1458.98V375.17V306.885H1458.96L1440.56 302.599L1422.15 306.885H1409.87V301.744L1388.94 294.037V288.219V288.113V272.862C1388.94 271.72 1388.08 270.794 1387.02 270.794C1385.96 270.794 1385.1 271.72 1385.1 272.862V277.859H1383.14V245.113H1384.47V242.39H1382.39L1379.17 238.059V230.246H1379.83V228.744H1379.07V228.141L1377.48 226.303L1376.29 223.57C1376.72 223.521 1377.05 223.134 1377.05 222.662C1377.05 222.16 1376.67 221.751 1376.21 221.751H1375.56V212.744C1375.56 211.857 1374.9 211.138 1374.07 211.138C1373.25 211.138 1372.58 211.857 1372.58 212.744V221.751H1371.94C1371.47 221.751 1371.09 222.16 1371.09 222.662C1371.09 223.134 1371.42 223.521 1371.85 223.57L1370.67 226.303L1369.08 228.141V228.744H1368.31V230.246H1368.97V238.054L1365.75 242.39H1363.67V245.113H1365V277.859H1363.05V272.862C1363.05 271.72 1362.19 270.794 1361.13 270.794C1360.07 270.794 1359.21 271.72 1359.21 272.862V277.859V288.113V294.037L1338.27 301.74V306.885H1316.29V279.598H1307.79V272.131H1275.2V266.377H1266.73V260.018H1254.5V272.131H1215.35L1216.96 354.155L1210.5 354.56L1208.82 302.339H1181.19V244.358H1137.44V231.883H1089.16V244.358H1068.28V118.427H1042.54V106.302H995.21V84.5114H983.194V80.24H979.172V75.0436H973.456V65.3124H966.349V61.9018H962.752V65.3124H955.648V75.0436H949.929V80.24H945.907V84.5115H933.893V203.453H926.98V136.871V124.14H874.733V136.871H865.867V148.009L866.994 169.545L765.099 168.746H742.801V212.756H736.858V208.906H733.492L729.13 32.7116L715.897 0L715.869 0.062422L676.125 10.282L651.921 8.19999H625.257V8.21764L617.636 32.7172L612.973 221.114V238.417H593.526V252.182H563.073L564.406 313.847L565.031 345.449L555.579 345.885L554.756 313.847L537.409 313.377V308.842H540.341V304.481H537.409V279.507H540.341V275.511H537.409V266.606H534.931V244.982H534.847L524.239 219.583H525.069V214.768H522.685V207.934H522.667V207.749C522.667 205.277 521.165 203.185 519.092 202.47V177.851C530.428 175.199 525.025 186.312 539.486 185.105V170.092C528.567 173.383 531.256 161.115 517.496 163.337H515.921V202.47C513.846 203.185 512.347 205.277 512.347 207.749V214.763H509.962V219.578H510.786L500.178 244.977H500.099V266.601H497.614V275.506H494.688V279.502H497.614V300.773L455.405 302.208L454.119 143.102V131.555H439.263V123.813H420.359V131.555H375.939V143.102H356.638L358.641 280.437L327.318 279.001L325.985 106.302H224.212L224.545 315.012C211.118 313.864 215.475 313.119 211.118 313.864V263.951H191.09V255.29H160.46V263.951H140.437V305.638H125.253L125.587 318.678L117.177 319.038L116.756 303.479H100.85V296.921H78.0684V309.517C77.7447 315.192 77.9481 318.534 77.9481 318.534C61.619 318.685 63.777 318.335 58.6193 318.324Z" fill="#8FBAC6"/>
</g>
<defs>
<clipPath id="clip0_69_6456">
<rect width="1458.98" height="449.183" fill="white"/>
</clipPath>
</defs>
</svg>
