<svg width="1459" height="572" viewBox="0 0 1459 572" fill="none" xmlns="http://www.w3.org/2000/svg">
<g clip-path="url(#clip0_69_6451)">
<path fill-rule="evenodd" clip-rule="evenodd" d="M1366.73 331.351H1365.07C1364.87 317.103 1357.12 307.707 1349.32 302.095V286.061C1349.32 285.979 1349.32 285.903 1349.32 285.825C1349.32 284.133 1348.53 282.659 1347.37 281.895V276.446C1347.37 275.368 1346.56 274.492 1345.56 274.492C1344.56 274.492 1343.75 275.368 1343.75 276.446V281.892C1342.58 282.654 1341.8 284.129 1341.8 285.825V302.074H1341.62C1333.8 307.687 1326.04 317.087 1325.84 331.351H1324.18V339.285H1321.58V362.263H1313.92V402.378H1307.8V394.911H1299.82V328.427H1273.29V266.056H1250.13V257.243H1225.21V266.056H1202.05V274.83H1184.77L1184.55 389.855C1169.58 389.473 1184.55 389.855 1169.58 389.473L1171 283.033H1147.83V269.174H1122.92V283.033H1099.76V354.647H1090.57V0H965.295L964.069 326.233H926.989V259.651L926.985 246.919H911.563V54.3617V36.4669C911.563 36.389 911.565 36.3111 911.565 36.2313C911.565 16.2215 892.473 0 868.922 0V23.5641C851.538 23.5641 837.443 37.352 837.443 54.36V155.878C834.868 293.556 835.404 213.446 834.868 293.556L754.975 291.526V183.24H729.823C629.595 183.469 729.823 183.24 628.724 185.804L626.838 22.8141H606.089V0.810598H533.472L537.472 386.239L516.185 386.614L516.786 240.763H501.799V224.831H486.785V207.491H414.168V254.333H386.644V221.348H314.025V229.08H224.222V435.277C219.848 435.422 215.485 435.897 211.127 436.642V386.728H191.099V378.067H181.883V303.803H175.711V299.507L181.88 296.911H181.886V292.546H175.711H106.118H99.9495V296.911L106.118 299.507V303.803H99.9463L101.28 494.359C4.63228 497.942 59.7908 493.675 4.63228 497.942H0V571.955H1458.98V497.942V429.658H1458.96L1456.07 428.984V422.027H1447.3V408.189H1388.94V395.635C1388.94 394.493 1388.08 393.567 1387.02 393.567C1385.96 393.567 1385.1 394.493 1385.1 395.635V400.632H1383.14C1381.94 393.083 1383.14 400.632 1382.39 365.163L1379.17 360.832C1369.33 360.769 1377.4 360.751 1369.33 360.769V339.278H1366.73L1366.73 331.351Z" fill="#A6DEEE"/>
</g>
<defs>
<clipPath id="clip0_69_6451">
<rect width="1458.98" height="571.955" fill="white"/>
</clipPath>
</defs>
</svg>
