<svg width="1459" height="483" viewBox="0 0 1459 483" fill="none" xmlns="http://www.w3.org/2000/svg">
<g clip-path="url(#clip0_69_6461)">
<path fill-rule="evenodd" clip-rule="evenodd" d="M0 408.538H12.8948V381.227H29.6273V211.393H14.545V199.748V192.418H14.561L29.6336 186.092V175.318H40.965V143.592H42.4737V97.2257C42.4737 96.2453 43.2136 95.4485 44.124 95.4485C45.036 95.4485 45.7758 96.2453 45.7758 97.2257V143.592H47.2845V175.318H58.6175V186.088L73.6998 192.416V211.397H58.6224V351.689H66.375C73.2044 344.012 83.3407 339.146 94.6544 339.139H94.7027C106.016 339.139 116.153 344.012 122.982 351.689H134.753V363.564H144.773V397.019H150.004V353.703H156.003V349.17H174.031V358.777C191.706 351.437 209.488 345.758 227.392 345.82C245.292 345.759 263.075 351.437 280.752 358.777V375.26H295.726V347.24H322.712V354.01H330.664V258.949H347.497L347.434 250.358H371.477L371.54 258.949H388.626V361.61H397.987V262.552H440.092V251.744H460.439V258.949H465.954V262.552H488.76V397.861H502.902V408.543H507.46V378.684H528.104V371.477H551.01V378.684H563.02V373.217H574.197V378.684H585.055V383.879H591.663V374.657H609.208V360.077H639.047V254.434H653.092V242.279H662.286V236.769H712.064V242.279H736.874V246.13H746.93V353.149H760.675V246.255H765.115V71.9536H777.507V66.4714H797.666V51.4883H809.382V2.16179C809.382 0.968311 810.281 0 811.389 0C812.499 0 813.396 0.968311 813.396 2.16179V51.4883H825.117V66.4714H845.275V71.9536H857.676V231.303H868.906V236.826H879.091V224.209H902.323V236.826H913.541V231.303H925.642V236.826H943.62V349.304H951.737V325.776H960.471V305.539H1005.49V325.776H1014.23V360.088H1043.21V353.178H1053.29V408.543H1060.84V300.886V290.452L1083.62 297.339H1094.34V292.115H1109.49V300.886H1133.25V347.37H1147.68V337.961H1168.2V347.37H1203.65V356.61L1294.22 367.313L1288.24 355.39L1333.95 364.436L1380.36 344.294L1378.85 366.218L1372.98 380.468L1380.71 384.218L1412.72 378.412L1406.73 388.279H1444.72L1451.39 408.543H1459V482.556H0.0016152L0 408.538ZM1203.64 360.495L1273.53 408.538H1242.18V392.133H1203.64V360.495ZM94.6899 354.72C92.6987 354.72 91.087 352.938 91.087 350.741C91.087 348.543 92.6987 346.762 94.6899 346.762C96.6796 346.762 98.2928 348.543 98.2928 350.741C98.2928 352.938 96.6796 354.72 94.6899 354.72ZM99.705 344.964C105.791 345.924 111.31 348.467 115.767 352.127V354.587H104.598V351.205H102.182C102.182 348.73 101.228 346.503 99.705 344.964ZM89.6266 344.964C88.1034 346.503 87.1496 348.73 87.1496 351.205H84.737V354.587H73.7449V351.98C78.1697 348.398 83.6207 345.912 89.6266 344.964Z" fill="#59A1B5"/>
</g>
<defs>
<clipPath id="clip0_69_6461">
<rect width="1459" height="482.556" fill="white"/>
</clipPath>
</defs>
</svg>
