<svg width="805" height="805" viewBox="0 0 805 805" fill="none" xmlns="http://www.w3.org/2000/svg">
<circle cx="402.5" cy="402.5" r="402.5" fill="#FFFEFD"/>
<path d="M287.986 700.612C285.883 700.175 283.417 699.719 282.505 699.599C281.593 699.478 280.468 699.183 280.004 698.944C279.541 698.704 278.308 698.35 277.265 698.158C276.222 697.965 274.931 697.581 274.397 697.304C273.862 697.028 272.701 696.64 271.817 696.442C270.933 696.243 269.98 695.874 269.7 695.621C269.42 695.367 268.547 695.015 267.759 694.838C266.971 694.661 266.076 694.29 265.769 694.014C265.462 693.737 264.778 693.403 264.249 693.271C263.212 693.012 258.431 690.631 257.913 690.116C257.739 689.943 257.387 689.802 257.129 689.802C256.872 689.802 256.244 689.465 255.732 689.053C255.22 688.642 254.027 687.857 253.079 687.308C252.132 686.759 251.179 686.147 250.962 685.947C250.595 685.61 248.372 684.088 247.12 683.318C246.822 683.135 246.272 682.686 245.897 682.32C245.521 681.955 244.701 681.254 244.074 680.764C241.514 678.762 240.522 677.869 237.802 675.119C236.236 673.536 234.431 671.538 233.791 670.679C233.151 669.82 232.29 668.779 231.879 668.366C231.467 667.953 231.131 667.468 231.131 667.289C231.131 667.109 230.835 666.695 230.474 666.369C230.113 666.042 229.719 665.458 229.598 665.07C229.476 664.683 229.024 663.943 228.592 663.426C228.159 662.909 227.806 662.228 227.806 661.911C227.806 661.595 227.432 660.83 226.975 660.21C226.517 659.59 226.143 658.833 226.143 658.528C226.143 658.222 225.849 657.598 225.49 657.142C225.131 656.685 224.678 655.602 224.483 654.735C224.289 653.869 223.926 652.764 223.676 652.279C223.427 651.795 222.984 650.202 222.692 648.739C222.4 647.276 221.932 645.256 221.653 644.25C221.29 642.946 221.17 641.206 221.233 638.182C221.322 633.942 221.597 633.087 222.378 634.619C222.594 635.041 223.005 635.517 223.293 635.679C223.581 635.84 223.816 636.159 223.816 636.387C223.816 636.741 224.948 638.559 227.141 641.727C227.633 642.438 229.164 644.471 230.133 645.701C232.258 648.397 240.418 655.555 241.367 655.555C241.544 655.555 241.894 655.804 242.145 656.108C242.396 656.412 243.2 656.945 243.932 657.293C244.663 657.641 246.133 658.437 247.198 659.062C248.262 659.686 249.759 660.364 250.523 660.567C251.286 660.77 252.138 661.139 252.415 661.386C252.693 661.633 253.643 661.997 254.527 662.195C255.412 662.393 256.538 662.763 257.029 663.018C257.521 663.272 259.083 663.641 260.5 663.839C261.918 664.036 263.557 664.453 264.144 664.766C265.045 665.246 266.242 665.337 271.861 665.349C277.94 665.363 278.689 665.299 280.59 664.615C281.733 664.204 283.047 663.867 283.509 663.867C283.971 663.867 285.238 663.493 286.324 663.036C287.41 662.579 288.58 662.205 288.924 662.205C289.268 662.205 290.208 661.856 291.012 661.429C291.817 661.002 292.912 660.544 293.446 660.411C293.98 660.278 294.786 659.879 295.237 659.524C295.687 659.17 296.306 658.88 296.611 658.88C296.917 658.88 297.674 658.506 298.294 658.049C298.913 657.592 299.645 657.218 299.92 657.218C300.194 657.218 300.988 656.844 301.684 656.386C302.379 655.929 303.509 655.205 304.195 654.777C305.961 653.676 307.111 652.914 309.798 651.07C311.311 650.031 313.355 648.467 314.15 647.741C314.549 647.375 315.653 646.403 316.603 645.58C319.747 642.856 326.017 636.489 329.699 632.281C331.239 630.521 333.87 627.169 333.87 626.967C333.87 626.834 334.243 626.292 334.699 625.763C335.762 624.529 336.595 623.503 338.046 621.641C338.687 620.818 339.543 619.751 339.949 619.269C340.354 618.787 340.985 618.003 341.351 617.527C341.717 617.052 342.39 616.241 342.847 615.726C343.304 615.211 344.501 613.832 345.507 612.662C349.366 608.174 354.725 603.059 356.396 602.271C356.808 602.076 357.144 601.812 357.144 601.684C357.144 601.555 357.817 601.193 358.64 600.878C359.463 600.564 360.137 600.175 360.137 600.015C360.137 599.854 360.772 599.552 361.55 599.345C362.327 599.137 363.561 598.697 364.293 598.367C368.088 596.656 381.295 596.659 384.741 598.372C385.381 598.69 386.428 599.063 387.068 599.201C387.708 599.338 388.589 599.73 389.025 600.072C389.461 600.414 390.002 600.694 390.227 600.694C390.452 600.694 390.996 600.977 391.436 601.323C391.876 601.669 392.702 602.23 393.273 602.57C393.843 602.91 395.018 603.681 395.883 604.284C397.316 605.283 397.505 605.335 398.023 604.866C398.336 604.583 398.767 604.351 398.981 604.351C399.195 604.351 399.663 604.058 400.022 603.7C400.38 603.342 401.302 602.706 402.07 602.287C406.086 600.098 408.208 599.032 408.549 599.032C408.757 599.032 409.611 598.73 410.445 598.361C414.111 596.739 427.49 596.725 431.08 598.339C431.835 598.679 432.932 599.059 433.518 599.184C434.104 599.308 434.927 599.679 435.347 600.007C435.767 600.335 436.484 600.72 436.942 600.863C437.399 601.006 438.236 601.475 438.802 601.906C439.368 602.337 439.95 602.689 440.097 602.689C440.385 602.689 440.357 602.664 444.755 606.936C447.919 610.009 449.748 612.055 451.875 614.903C452.59 615.86 453.375 616.854 453.62 617.113C453.865 617.371 454.439 618.067 454.896 618.661C455.353 619.254 456.064 620.13 456.476 620.607C456.888 621.085 458.074 622.597 459.112 623.969C460.15 625.34 461.984 627.659 463.189 629.122C464.393 630.585 465.822 632.381 466.365 633.112C467.488 634.626 480.095 647.243 480.484 647.243C480.728 647.243 482.324 648.417 484.219 649.991C485.793 651.297 486.607 651.882 488.477 653.053C489.483 653.682 490.521 654.39 490.784 654.627C491.273 655.067 493.061 656.072 495.122 657.065C495.759 657.373 496.639 657.907 497.078 658.252C497.518 658.597 498.127 658.88 498.432 658.88C498.738 658.88 499.495 659.254 500.115 659.711C500.734 660.169 501.474 660.544 501.759 660.546C502.043 660.548 503.024 660.917 503.938 661.366C504.853 661.816 505.831 662.189 506.112 662.195C506.394 662.199 507.192 662.495 507.886 662.848C508.58 663.202 509.891 663.651 510.799 663.846C511.707 664.041 512.879 664.422 513.403 664.693C515.789 665.927 529.962 665.942 532.338 664.714C532.933 664.407 534.314 664.011 535.408 663.835C536.501 663.659 537.945 663.22 538.616 662.861C539.288 662.501 540.064 662.205 540.341 662.203C540.618 662.201 541.593 661.832 542.507 661.382C543.421 660.933 544.334 660.56 544.535 660.554C544.736 660.549 546.008 659.946 547.361 659.216C548.715 658.486 550.383 657.641 551.069 657.337C551.754 657.034 552.315 656.662 552.315 656.512C552.315 656.361 552.802 655.989 553.396 655.683C558.556 653.031 567.282 644.018 570.562 637.951C570.815 637.485 571.284 636.804 571.605 636.438C571.926 636.073 572.28 635.474 572.392 635.108C572.69 634.134 574.578 632.234 574.993 632.491C575.457 632.778 575.079 638.865 574.445 641.303C574.189 642.285 573.809 644.36 573.599 645.914C573.389 647.469 573.023 649.041 572.786 649.409C572.548 649.776 572.18 650.887 571.968 651.878C571.755 652.868 571.303 654.138 570.962 654.701C570.621 655.263 570.241 656.199 570.118 656.78C569.995 657.362 569.688 658.01 569.434 658.22C569.181 658.43 568.795 659.151 568.576 659.822C568.357 660.493 567.901 661.399 567.562 661.835C567.222 662.272 566.945 662.781 566.945 662.968C566.945 663.155 566.571 663.798 566.114 664.397C565.657 664.996 565.283 665.572 565.283 665.677C565.283 665.923 562.017 670.209 560.206 672.341C558.52 674.325 556.409 676.436 553.956 678.589C551.405 680.828 551.332 680.887 549.533 682.168C548.643 682.801 547.578 683.656 547.167 684.067C546.757 684.479 546.277 684.815 546.102 684.815C545.927 684.815 545.196 685.26 544.478 685.804C543.76 686.347 542.992 686.796 542.773 686.801C542.553 686.806 542.254 687.009 542.108 687.252C541.962 687.495 541.28 687.981 540.594 688.333C534.089 691.662 530.421 693.46 530.133 693.46C529.943 693.46 529.608 693.677 529.389 693.941C529.169 694.205 528.19 694.587 527.213 694.79C526.235 694.993 525.264 695.365 525.055 695.617C524.846 695.868 523.93 696.234 523.018 696.43C522.107 696.625 520.916 697.015 520.372 697.297C519.828 697.578 518.529 697.966 517.486 698.159C516.442 698.352 515.206 698.708 514.737 698.95C514.269 699.192 512.77 699.546 511.406 699.735C510.042 699.925 508.266 700.313 507.459 700.598C494.344 704.134 481.887 702.338 470.689 701.604C468.495 701.484 465.62 701.1 464.301 700.752C462.982 700.404 461.037 700.019 459.979 699.897C458.92 699.775 457.116 699.324 455.969 698.895C454.822 698.466 453.508 698.115 453.05 698.115C452.591 698.115 451.327 697.741 450.241 697.284C449.155 696.827 448 696.451 447.674 696.45C447.349 696.447 446.334 696.079 445.42 695.629C444.506 695.179 443.496 694.806 443.176 694.801C442.856 694.796 441.884 694.427 441.015 693.983C440.146 693.54 438.538 692.781 437.44 692.298C436.343 691.815 435.071 691.208 434.614 690.949C434.157 690.691 433.262 690.236 432.625 689.938C431.988 689.64 431.107 689.114 430.668 688.768C430.229 688.423 429.614 688.14 429.301 688.14C428.988 688.14 428.467 687.847 428.142 687.488C427.817 687.129 427.046 686.669 426.428 686.465C425.81 686.261 425.305 685.959 425.305 685.794C425.305 685.629 424.743 685.186 424.058 684.81C423.372 684.434 422.212 683.679 421.481 683.131C420.749 682.583 419.784 681.878 419.336 681.564C418.887 681.251 418.202 680.694 417.812 680.328C417.422 679.962 416.224 678.914 415.15 678C414.076 677.085 412.443 675.529 411.521 674.542C410.598 673.555 409.051 671.909 408.083 670.885C405.793 668.462 405.886 668.57 402.717 664.7C401.219 662.871 399.407 660.706 398.69 659.889L397.387 658.402L396.077 659.682C395.356 660.386 394.676 661.32 394.566 661.759C394.456 662.197 394.108 662.841 393.793 663.19C393.477 663.539 392.801 664.395 392.291 665.093C389.859 668.417 389.303 669.134 387.985 670.657C385.715 673.278 378.993 679.828 378.573 679.828C378.446 679.828 375.517 681.979 372.937 683.966C371.5 685.073 369.261 686.466 368.909 686.472C368.705 686.474 368.117 686.81 367.602 687.215C366.595 688.007 365.427 688.683 363.255 689.731C362.501 690.095 361.789 690.548 361.671 690.738C361.553 690.928 360.898 691.264 360.215 691.483C359.532 691.703 358.748 692.073 358.474 692.308C358.2 692.542 357.329 692.906 356.539 693.116C355.749 693.326 354.627 693.789 354.045 694.143C353.464 694.498 352.749 694.788 352.456 694.789C352.163 694.789 351.22 695.164 350.36 695.621C349.5 696.079 348.462 696.453 348.053 696.453C347.645 696.453 346.726 696.751 346.012 697.115C345.297 697.479 343.813 697.94 342.714 698.139C341.614 698.339 340.289 698.722 339.77 698.99C339.25 699.259 337.549 699.624 335.989 699.801C334.429 699.978 332.603 700.353 331.932 700.633C315.067 703.84 303.869 703.826 287.986 700.612ZM261.387 542.184C260.381 542.033 258.464 541.895 257.126 541.877C255.788 541.858 254.434 541.705 254.117 541.535C253.8 541.366 251.678 541.129 249.401 541.01C246.693 540.868 244.284 540.524 242.435 540.017C240.881 539.59 238.736 539.151 237.669 539.04C236.601 538.929 235.323 538.629 234.828 538.374C234.334 538.118 232.962 537.736 231.782 537.524C230.601 537.313 229.302 536.927 228.896 536.665C228.49 536.403 227.367 536.023 226.402 535.821C225.437 535.619 224.181 535.171 223.61 534.825C223.04 534.479 222.32 534.197 222.01 534.197C221.491 534.197 217.661 532.558 216.501 531.84C216.227 531.671 215.628 531.37 215.171 531.172C214.714 530.975 213.966 530.604 213.509 530.348C213.052 530.092 212.061 529.584 211.308 529.218C210.555 528.851 209.752 528.326 209.522 528.049C209.293 527.773 208.919 527.547 208.693 527.547C208.466 527.547 207.716 527.098 207.025 526.549C206.335 526.001 205.648 525.552 205.498 525.552C205.349 525.552 204.867 525.215 204.426 524.804C203.228 523.684 200.555 521.464 199.724 520.897C197.862 519.628 192.399 513.226 190.068 509.58C189.337 508.436 188.63 507.334 188.497 507.133C188.364 506.931 188.031 506.242 187.756 505.602C187.481 504.962 187.118 504.214 186.95 503.94C186.062 502.491 184.918 499.795 184.726 498.701C184.607 498.016 184.238 496.982 183.908 496.403C183.577 495.824 183.204 494.477 183.077 493.411C182.951 492.344 182.582 490.855 182.256 490.101C181.931 489.348 181.555 487.78 181.42 486.618C181.285 485.455 180.957 483.903 180.691 483.167C180.425 482.431 179.993 480.435 179.731 478.73C179.469 477.025 179.049 475.229 178.798 474.74C178.548 474.25 178.232 472.881 178.096 471.696C177.96 470.512 177.636 468.941 177.374 468.205C177.113 467.469 176.676 465.387 176.404 463.577C176.131 461.767 175.753 459.995 175.562 459.639C175.372 459.283 175.013 457.547 174.764 455.781C174.516 454.015 174.096 452.047 173.832 451.407C173.567 450.767 173.249 449.27 173.124 448.082C173 446.893 172.627 445.098 172.295 444.092C171.964 443.086 171.588 441.216 171.459 439.936C171.33 438.656 170.944 436.966 170.601 436.181C170.258 435.396 169.879 434.199 169.758 433.521C169.637 432.843 169.277 431.989 168.958 431.624C168.639 431.258 168.274 430.522 168.147 429.988C167.886 428.888 165.225 425.518 163.968 424.696C163.511 424.397 162.314 423.551 161.308 422.818C160.302 422.084 159.333 421.483 159.155 421.483C158.977 421.483 158.356 420.949 157.775 420.296C156.969 419.389 156.629 418.585 156.334 416.888C155.408 405.148 152.64 388.126 164.509 387.143C166.68 386.967 168.643 386.673 168.872 386.49C169.356 386.103 169.432 384.372 168.978 384.091C168.807 383.986 168.499 383.042 168.293 381.994C168.087 380.945 167.647 379.414 167.315 378.591C166.982 377.769 166.613 376.316 166.493 375.362C166.373 374.409 165.986 372.721 165.631 371.611C165.158 370.129 164.89 367.807 164.626 362.871C164.427 359.173 164.125 355.625 163.954 354.985C163.783 354.345 163.482 351.203 163.286 348.002C163.089 344.802 162.652 340.987 162.314 339.524C161.976 338.061 161.597 335.817 161.471 334.537C161.345 333.257 161.021 331.686 160.752 331.046C160.482 330.405 160.05 327.712 159.792 325.061C159.534 322.409 159.178 319.716 159.002 319.076C158.535 317.384 158.33 307.945 158.655 303.116C159.106 296.418 160.203 286.819 160.765 284.663C161.051 283.566 161.431 281.471 161.61 280.008C161.789 278.545 162.152 276.825 162.416 276.185C162.68 275.545 163.006 274.198 163.139 273.192C163.273 272.187 163.651 270.833 163.98 270.184C164.308 269.536 164.685 268.414 164.817 267.691C164.948 266.968 165.41 265.704 165.842 264.883C166.274 264.061 166.628 263.146 166.628 262.85C166.628 262.553 166.905 261.953 167.244 261.517C167.584 261.081 168.04 260.175 168.259 259.504C168.478 258.833 168.874 258.104 169.138 257.884C169.403 257.664 169.623 257.315 169.626 257.109C169.629 256.903 170.041 256.11 170.541 255.346C171.04 254.583 171.898 253.192 172.446 252.256C172.995 251.32 173.743 250.198 174.109 249.762C174.475 249.327 175.148 248.43 175.605 247.769C177.544 244.962 179.049 243.011 180.433 241.505C184.168 237.443 184.537 236.832 184.868 234.17C185.042 232.76 185.345 231.416 185.539 231.182C185.733 230.948 186.049 229.345 186.241 227.62C186.434 225.894 186.875 223.585 187.223 222.488C187.57 221.391 187.953 219.745 188.074 218.83C188.195 217.916 188.565 216.549 188.896 215.793C189.227 215.037 189.603 213.766 189.732 212.967C189.861 212.169 190.17 211.193 190.42 210.798C190.67 210.404 191.05 209.357 191.264 208.471C191.479 207.585 191.933 206.394 192.274 205.824C192.615 205.254 192.894 204.592 192.894 204.354C192.894 203.955 193.674 202.186 195.749 197.879C196.19 196.962 196.552 196.05 196.552 195.852C196.552 195.655 196.838 195.234 197.187 194.918C197.536 194.602 197.917 193.965 198.033 193.503C198.149 193.041 198.536 192.229 198.894 191.699C199.252 191.169 199.833 190.306 200.186 189.782C200.539 189.258 201.055 188.286 201.333 187.621C201.611 186.956 201.972 186.413 202.137 186.413C202.301 186.413 202.706 185.814 203.035 185.083C203.365 184.351 203.734 183.753 203.856 183.753C203.977 183.753 204.326 183.229 204.631 182.589C204.936 181.949 205.328 181.425 205.501 181.425C205.675 181.425 205.908 181.139 206.019 180.79C206.13 180.44 206.658 179.579 207.193 178.878C207.728 178.176 208.433 177.249 208.759 176.817C209.086 176.386 209.741 175.563 210.216 174.989C210.692 174.414 211.641 173.196 212.327 172.282C214.296 169.656 215.964 167.83 221.668 162.055C227.131 156.523 229.039 154.768 231.98 152.572C232.904 151.882 233.876 151.133 234.141 150.907C235.102 150.086 237.077 148.66 238.153 148.01C238.758 147.644 239.573 147.121 239.964 146.846C240.354 146.572 241.108 146.062 241.638 145.713C242.168 145.363 243.133 144.727 243.783 144.299C244.433 143.872 245.121 143.522 245.311 143.522C245.501 143.522 245.916 143.236 246.232 142.886C246.548 142.537 247.207 142.152 247.697 142.031C248.186 141.909 248.886 141.54 249.251 141.21C249.617 140.881 250.465 140.435 251.137 140.221C251.808 140.006 252.537 139.613 252.757 139.348C252.977 139.083 253.4 138.866 253.698 138.865C253.995 138.865 255.136 138.416 256.234 137.869C257.331 137.322 258.43 136.874 258.676 136.873C258.922 136.872 259.526 136.585 260.017 136.235C260.509 135.885 261.504 135.491 262.23 135.359C262.955 135.227 264.072 134.858 264.712 134.539C265.352 134.22 266.529 133.85 267.327 133.717C268.126 133.584 269.398 133.204 270.154 132.872C270.91 132.54 272.652 132.113 274.025 131.924C275.398 131.735 276.969 131.364 277.516 131.099C278.063 130.834 280.589 130.441 283.135 130.225C285.678 130.01 288.134 129.69 288.593 129.516C289.051 129.342 293.254 129.145 297.933 129.079C306.736 128.954 307.865 128.836 309.266 127.887C310.046 127.359 310.786 126.869 312.882 125.493C314.226 124.609 314.66 124.313 315.916 123.419C316.556 122.963 317.566 122.334 318.16 122.022C318.754 121.71 319.24 121.344 319.24 121.209C319.24 121.074 319.746 120.797 320.364 120.593C320.982 120.389 321.753 119.929 322.078 119.57C322.403 119.211 322.924 118.917 323.235 118.917C323.547 118.917 324.354 118.543 325.027 118.086C325.701 117.629 326.433 117.254 326.653 117.254C326.873 117.253 327.578 116.925 328.218 116.524C329.368 115.805 330.799 115.206 334.036 114.09C334.951 113.775 336.222 113.256 336.862 112.937C337.502 112.618 338.765 112.249 339.669 112.116C340.573 111.984 341.994 111.609 342.828 111.284C343.661 110.958 345.241 110.59 346.338 110.465C347.436 110.341 349.306 109.959 350.494 109.616C351.683 109.274 353.774 108.895 355.141 108.775C356.508 108.654 358.229 108.342 358.965 108.082C359.701 107.822 361.841 107.389 363.72 107.119C365.599 106.85 367.436 106.469 367.802 106.273C368.168 106.077 370.254 105.707 372.439 105.451C374.623 105.195 376.678 104.843 377.004 104.668C377.331 104.493 379.842 104.106 382.583 103.807C385.324 103.508 387.895 103.127 388.297 102.96C388.698 102.793 392.289 102.419 396.277 102.129C415.672 98.5204 432.81 100.864 448.487 102.124C452.002 102.405 455.294 102.794 455.802 102.988C456.309 103.182 458.507 103.561 460.685 103.831C462.863 104.101 464.905 104.461 465.224 104.631C465.542 104.802 467.264 105.176 469.049 105.464C470.835 105.751 472.564 106.13 472.892 106.305C473.22 106.48 474.729 106.859 476.245 107.147C477.761 107.434 479.172 107.811 479.38 107.984C479.589 108.157 480.842 108.524 482.166 108.8C483.489 109.076 484.969 109.507 485.456 109.759C485.942 110.01 486.931 110.327 487.653 110.462C488.376 110.598 489.718 111.058 490.634 111.485C491.551 111.912 492.6 112.263 492.966 112.266C493.332 112.27 494.078 112.566 494.623 112.926C495.169 113.286 496.25 113.675 497.025 113.791C497.8 113.908 498.75 114.276 499.136 114.611C499.521 114.945 500.311 115.322 500.89 115.447C501.469 115.573 502.467 115.944 503.107 116.272C503.747 116.599 507.039 118.241 510.422 119.919C513.805 121.597 517.171 123.33 517.903 123.769C518.634 124.208 519.863 124.872 520.632 125.243C521.402 125.615 522.11 126.045 522.205 126.2C522.301 126.354 523.392 127.107 524.629 127.873C525.867 128.638 527.553 129.781 528.376 130.412C529.199 131.044 530.25 131.746 530.712 131.972C531.174 132.198 531.847 132.651 532.208 132.978C532.774 133.491 534.961 135.24 538.451 137.971C539.66 138.917 540.732 139.85 543.878 142.69C545.295 143.97 546.913 145.421 547.473 145.914C549.274 147.498 559.314 157.102 564.314 162.023C566.982 164.648 569.27 166.796 569.399 166.796C569.528 166.796 570.421 167.581 571.383 168.541C573.61 170.764 575.647 172.564 577.751 174.163C580.06 175.92 580.782 176.477 582.007 177.449C582.592 177.913 583.445 178.477 583.902 178.701C584.359 178.925 585.406 179.553 586.229 180.095C587.052 180.638 588.1 181.248 588.557 181.45C589.014 181.652 590.083 182.178 590.933 182.619C591.783 183.06 592.746 183.42 593.073 183.42C593.399 183.42 594.275 183.71 595.019 184.065C595.762 184.419 597.642 184.946 599.197 185.236C600.751 185.525 602.846 185.923 603.851 186.118C606.057 186.548 610.824 186.265 612.662 185.596C613.394 185.33 614.503 185.105 615.127 185.097C615.751 185.089 616.873 184.728 617.62 184.294C618.368 183.86 619.332 183.396 619.762 183.263C622.402 182.447 630.76 175.368 632.279 172.663C632.672 171.964 633.442 172.171 634.046 173.138C634.279 173.51 634.633 175.116 634.833 176.706C635.033 178.296 635.398 179.995 635.643 180.482C635.889 180.968 636.317 183.362 636.594 185.802C640.558 196.835 637.645 203.272 636.637 211.183C636.381 213.195 635.938 215.364 635.651 216.004C635.364 216.644 634.966 218.017 634.766 219.054C634.567 220.092 634.199 221.11 633.949 221.318C633.699 221.525 633.396 222.28 633.275 222.996C633.154 223.711 632.768 224.662 632.418 225.107C632.067 225.553 631.78 226.133 631.78 226.397C631.78 226.661 631.334 227.535 630.789 228.339C630.244 229.144 629.792 229.952 629.785 230.135C629.774 230.453 628.345 232.727 627.278 234.125C626.999 234.491 626.333 235.388 625.798 236.12C623.568 239.172 622.896 240.023 621.473 241.593C618.34 245.051 618.534 244.47 618.136 251.625C617.939 255.167 617.644 258.513 617.48 259.062C617.316 259.61 616.948 264.473 616.662 269.867C616.376 275.262 615.999 280.2 615.824 280.84C615.517 281.961 615.046 291.116 614.651 303.615C614.547 306.907 614.323 310.124 614.154 310.764C613.906 311.697 613.442 323.156 612.738 345.675C612.713 346.498 612.867 349.49 613.082 352.325C613.686 360.29 613.899 372.074 613.575 379.589C613.413 383.338 613.372 386.854 613.483 387.402C613.675 388.354 613.783 388.411 615.833 388.635C619.973 389.088 623.329 389.529 626.461 390.031C628.198 390.31 629.71 390.543 629.822 390.549C630.418 390.584 632.892 392.941 633.843 394.38L634.939 396.039V407.355V418.67L633.694 420.545C632.641 422.132 632.073 422.607 630.005 423.629C627.409 424.911 624.816 427.191 623.157 429.649C621.701 431.807 620.263 435.639 619.982 438.111C619.848 439.297 619.52 440.792 619.255 441.432C618.99 442.072 618.624 443.867 618.441 445.422C618.258 446.976 617.837 449.071 617.504 450.077C617.172 451.083 616.794 453.025 616.665 454.393C616.536 455.761 616.209 457.407 615.939 458.05C615.669 458.694 615.299 460.492 615.116 462.046C614.933 463.601 614.512 465.695 614.179 466.701C613.847 467.707 613.47 469.645 613.341 471.009C613.212 472.372 612.896 473.897 612.637 474.398C612.378 474.898 611.956 476.775 611.698 478.568C611.441 480.362 611.008 482.353 610.736 482.993C610.465 483.633 610.133 484.98 610 485.986C609.867 486.991 609.551 488.218 609.299 488.712C609.046 489.206 608.674 490.403 608.473 491.372C608.272 492.341 607.897 493.466 607.64 493.873C607.383 494.279 607.006 495.39 606.802 496.341C606.598 497.292 606.075 498.74 605.64 499.558C605.205 500.377 604.849 501.305 604.849 501.621C604.849 501.937 604.625 502.382 604.352 502.608C604.079 502.835 603.694 503.621 603.496 504.356C603.177 505.543 602.807 506.271 601.256 508.761C601.029 509.127 600.54 510.025 600.171 510.756C599.801 511.487 598.681 513.208 597.68 514.58C596.68 515.951 595.607 517.447 595.297 517.905C594.709 518.772 588.282 525.155 586.662 526.481C584.713 528.077 583.135 529.209 582.859 529.209C582.701 529.209 582.306 529.471 581.98 529.791C581.654 530.111 580.869 530.64 580.234 530.967C579.6 531.293 577.974 532.154 576.62 532.879C575.267 533.603 573.903 534.197 573.59 534.197C573.276 534.197 572.663 534.472 572.227 534.809C571.79 535.145 570.709 535.6 569.823 535.819C568.938 536.038 567.891 536.425 567.496 536.679C567.102 536.933 565.813 537.313 564.632 537.525C563.451 537.736 562.087 538.114 561.602 538.365C561.116 538.616 559.389 538.98 557.764 539.174C556.139 539.367 554.285 539.749 553.645 540.022C551.863 540.783 539.683 541.605 530.205 541.605C518.204 541.605 505.074 540.768 502.442 539.836C501.985 539.674 499.518 539.374 496.96 539.168C494.402 538.963 491.789 538.577 491.152 538.311C490.515 538.045 488.875 537.671 487.508 537.481C486.14 537.291 484.489 536.866 483.84 536.537C483.19 536.208 482.004 535.83 481.203 535.696C480.402 535.563 479.28 535.185 478.709 534.857C478.139 534.529 477.148 534.152 476.508 534.019C475.868 533.886 475.001 533.508 474.581 533.179C474.16 532.849 473.385 532.485 472.858 532.369C472.331 532.254 471.727 531.952 471.517 531.699C471.307 531.445 470.586 531.061 469.915 530.845C469.244 530.628 468.447 530.209 468.145 529.913C467.843 529.617 466.819 528.927 465.869 528.378C460.343 525.186 452.654 518.103 447.308 511.282C446.818 510.657 446.114 509.834 445.743 509.453C445.372 509.073 444.886 508.387 444.663 507.93C444.44 507.473 443.736 506.425 443.1 505.602C442.464 504.78 441.715 503.657 441.437 503.109C441.158 502.56 440.483 501.438 439.937 500.615C439.39 499.792 438.655 498.5 438.303 497.742C437.95 496.985 437.511 496.273 437.326 496.158C437.141 496.044 436.808 495.392 436.585 494.709C436.362 494.026 435.913 493.123 435.586 492.703C435.26 492.283 434.898 491.508 434.782 490.98C434.666 490.453 434.358 489.844 434.097 489.627C433.835 489.41 433.457 488.615 433.256 487.859C433.054 487.103 432.698 486.26 432.464 485.986C432.23 485.711 431.85 484.901 431.62 484.184C431.389 483.467 430.937 482.42 430.614 481.857C430.292 481.293 429.92 480.458 429.788 480.001C429.656 479.544 429.355 478.945 429.12 478.671C428.884 478.397 428.513 477.504 428.296 476.688C428.078 475.871 427.616 474.841 427.267 474.398C426.919 473.956 426.634 473.292 426.634 472.924C426.634 472.555 426.26 471.453 425.803 470.475C423.786 466.159 423.37 465.133 423.171 463.992C423.055 463.324 422.752 462.606 422.499 462.396C422.245 462.185 421.862 461.28 421.647 460.384C421.432 459.488 421.053 458.586 420.805 458.38C420.557 458.174 420.186 457.197 419.981 456.208C419.775 455.219 419.472 454.327 419.307 454.225C419.142 454.123 418.699 453.005 418.322 451.739C417.945 450.474 417.507 449.358 417.348 449.26C417.189 449.162 416.881 448.34 416.664 447.434C416.447 446.529 416.058 445.612 415.799 445.398C415.541 445.183 415.33 444.838 415.33 444.629C415.33 444.178 413.108 439.688 412.184 438.273C410.34 435.449 406.44 432.143 403.89 431.243C403.173 430.99 402.363 430.598 402.091 430.372C401.392 429.792 390.034 429.792 389.335 430.372C389.062 430.598 388.251 430.991 387.531 431.245C384.285 432.39 380.274 436.157 378.039 440.159C377.736 440.701 377.261 441.397 376.984 441.704C376.707 442.012 376.379 442.669 376.256 443.164C376.132 443.659 375.822 444.238 375.567 444.449C375.312 444.661 374.939 445.453 374.738 446.209C374.536 446.965 374.18 447.807 373.946 448.082C373.712 448.356 373.33 449.179 373.098 449.91C372.866 450.642 372.47 451.54 372.217 451.905C371.964 452.271 371.597 453.169 371.402 453.9C371.207 454.632 370.855 455.455 370.621 455.729C370.387 456.003 370.004 456.826 369.77 457.558C369.537 458.289 369.16 459.187 368.934 459.553C368.708 459.918 368.335 460.816 368.106 461.548C367.877 462.279 367.482 463.177 367.23 463.543C366.977 463.908 366.61 464.806 366.415 465.538C366.219 466.269 365.863 467.092 365.623 467.366C365.382 467.641 365.008 468.538 364.791 469.361C364.575 470.184 364.201 471.082 363.96 471.356C363.72 471.63 363.356 472.484 363.151 473.254C362.946 474.023 362.644 474.736 362.48 474.837C362.317 474.938 361.927 475.805 361.616 476.763C361.304 477.721 360.86 478.729 360.63 479.003C360.399 479.278 360.109 479.981 359.984 480.567C359.86 481.153 359.484 481.981 359.148 482.407C358.813 482.834 358.373 483.796 358.171 484.545C357.97 485.295 357.596 486.081 357.341 486.293C357.086 486.505 356.779 487.068 356.66 487.544C356.417 488.512 354.594 492.261 353.134 494.797C352.608 495.711 351.926 497.02 351.618 497.706C351.31 498.392 350.935 498.953 350.785 498.953C350.635 498.953 350.262 499.439 349.958 500.033C349.654 500.628 348.752 501.976 347.955 503.029C347.157 504.083 346.505 505.038 346.505 505.152C346.505 505.267 346.168 505.7 345.756 506.115C345.345 506.53 344.634 507.358 344.177 507.954C342.163 510.582 336.785 516.052 333.692 518.62C332.955 519.232 332.08 519.958 331.749 520.232C331.418 520.506 330.784 521.064 330.34 521.471C329.896 521.878 329.209 522.385 328.813 522.597C328.417 522.808 327.934 523.109 327.74 523.265C326.254 524.456 324.168 525.884 323.916 525.884C323.748 525.884 323.403 526.091 323.15 526.345C322.71 526.784 321.344 527.594 318.596 529.043C317.902 529.409 317.127 529.873 316.874 530.075C316.621 530.277 315.9 530.616 315.272 530.828C314.644 531.039 313.896 531.421 313.61 531.676C313.324 531.931 312.471 532.304 311.715 532.506C310.959 532.707 310.168 533.079 309.958 533.333C309.747 533.587 309.019 533.896 308.34 534.02C307.66 534.144 306.745 534.478 306.305 534.761C305.865 535.045 304.626 535.482 303.553 535.733C302.479 535.983 301.268 536.402 300.861 536.663C300.455 536.924 299.374 537.238 298.46 537.361C297.545 537.485 296.234 537.87 295.545 538.216C294.855 538.563 293.434 538.937 292.386 539.047C291.338 539.157 289.366 539.548 288.003 539.916C285.67 540.547 280.319 541.201 272.359 541.828C265.335 542.382 263.178 542.452 261.387 542.184ZM537.353 534.57C542.872 534.367 546.089 534.104 547.328 533.756C548.334 533.472 550.698 533.081 552.582 532.887C554.466 532.692 556.411 532.328 556.905 532.078C557.398 531.828 558.765 531.456 559.943 531.253C562.138 530.873 564.504 530.058 567.448 528.667C568.365 528.234 569.367 527.879 569.673 527.879C569.98 527.879 570.328 527.722 570.447 527.529C570.566 527.337 571.435 526.812 572.378 526.364C574.275 525.463 575.854 524.524 577.796 523.141C578.503 522.637 579.605 521.869 580.245 521.433C580.885 520.997 582.81 519.164 584.522 517.36C588.927 512.722 588.889 512.765 588.889 512.375C588.889 512.181 589.209 511.738 589.6 511.389C589.991 511.041 590.526 510.307 590.79 509.759C591.053 509.21 591.697 508.013 592.221 507.099C592.745 506.184 593.345 505.062 593.555 504.605C593.764 504.148 594.278 503.1 594.696 502.278C595.114 501.455 595.56 500.198 595.688 499.486C595.816 498.773 596.123 497.876 596.37 497.491C596.618 497.106 596.988 495.819 597.192 494.63C597.396 493.442 597.779 491.909 598.044 491.224C598.308 490.539 598.675 488.652 598.859 487.03C599.042 485.408 599.413 483.554 599.681 482.911C599.95 482.268 600.341 479.667 600.55 477.131C600.759 474.595 601.145 471.999 601.408 471.363C601.734 470.575 601.993 467.767 602.222 462.552C602.41 458.279 602.77 454.007 603.038 452.882C603.712 450.054 603.72 434.701 603.048 432.109C602.79 431.111 602.482 428.872 602.364 427.135C602.233 425.213 601.841 423.065 601.363 421.649C600.931 420.369 600.487 418.775 600.376 418.108C600.266 417.441 599.959 416.715 599.694 416.495C599.43 416.276 599.119 415.596 599.005 414.985C598.89 414.374 598.437 413.387 597.999 412.793C597.56 412.198 597.201 411.538 597.201 411.326C597.201 411.114 596.864 410.557 596.453 410.088C596.041 409.619 595.256 408.613 594.707 407.851C593.754 406.528 590.895 403.713 589.191 402.422C585.881 399.913 583.402 398.208 583.063 398.208C582.842 398.208 582.292 397.918 581.842 397.564C581.391 397.21 580.586 396.816 580.051 396.69C579.517 396.564 578.631 396.193 578.083 395.866C577.534 395.539 576.487 395.166 575.755 395.036C575.024 394.906 573.796 394.519 573.028 394.175C572.259 393.832 570.5 393.394 569.118 393.202C567.737 393.01 566.097 392.639 565.474 392.379C564.85 392.119 562.57 391.742 560.406 391.542C558.242 391.342 555.798 390.975 554.975 390.725C554.152 390.476 550.785 390.093 547.494 389.875C544.202 389.656 541.271 389.355 540.981 389.205C540.112 388.757 525.705 387.901 519.026 387.901C511.401 387.901 503.281 388.426 500.624 389.091C499.533 389.363 496.532 389.799 493.956 390.058C491.379 390.317 488.85 390.688 488.336 390.884C487.822 391.079 485.96 391.387 484.199 391.568C482.437 391.749 479.874 392.179 478.502 392.525C477.131 392.87 475.111 393.251 474.013 393.372C472.916 393.493 471.196 393.865 470.19 394.198C469.184 394.532 467.464 394.913 466.367 395.045C465.27 395.177 463.957 395.499 463.449 395.762C462.941 396.024 461.669 396.394 460.622 396.584C459.576 396.774 458.387 397.143 457.98 397.404C457.574 397.665 456.499 398.038 455.591 398.233C454.684 398.427 453.764 398.801 453.546 399.062C453.329 399.324 452.988 399.538 452.788 399.538C452.588 399.538 451.223 400.144 449.753 400.885C447.324 402.109 446.273 402.733 443.383 404.666C442.043 405.562 435.943 411.85 435.943 412.335C435.943 412.555 435.682 412.975 435.362 413.269C435.042 413.563 434.273 414.82 433.654 416.064C433.036 417.307 432.25 418.877 431.909 419.554C431.568 420.23 431.288 421.053 431.288 421.382C431.288 421.712 430.898 423.552 430.421 425.472C429.598 428.79 429.562 429.304 429.69 435.831C429.78 440.429 429.953 442.854 430.216 443.17C430.431 443.43 430.767 445.127 430.961 446.942C431.156 448.758 431.599 451.215 431.946 452.404C432.293 453.593 432.673 455.484 432.792 456.606C432.911 457.728 433.221 459.058 433.482 459.561C433.743 460.064 434.121 461.54 434.322 462.84C434.523 464.141 434.951 465.729 435.272 466.369C435.593 467.009 435.965 468.277 436.098 469.187C436.231 470.097 436.604 471.369 436.928 472.013C437.251 472.658 437.623 473.775 437.754 474.497C437.886 475.219 438.28 476.174 438.631 476.62C438.981 477.066 439.268 477.762 439.268 478.167C439.268 478.573 439.617 479.562 440.044 480.367C440.471 481.171 440.929 482.266 441.062 482.801C441.195 483.335 441.594 484.141 441.949 484.591C442.303 485.042 442.593 485.668 442.593 485.984C442.593 486.3 442.967 487.109 443.424 487.783C443.882 488.456 444.258 489.188 444.262 489.408C444.264 489.629 444.676 490.422 445.176 491.172C445.676 491.921 446.458 493.167 446.916 493.941C447.373 494.716 448.083 495.77 448.495 496.285C448.906 496.799 449.243 497.365 449.243 497.542C449.243 497.719 449.687 498.445 450.229 499.156C450.771 499.867 451.482 500.804 451.808 501.239C452.135 501.674 452.813 502.481 453.316 503.034C453.819 503.586 454.23 504.147 454.23 504.279C454.23 505.102 465.868 516.034 469.192 518.334C469.65 518.65 470.609 519.319 471.325 519.82C473.226 521.15 474.825 522.115 476.424 522.897C477.201 523.277 477.837 523.719 477.837 523.879C477.837 524.039 478.398 524.35 479.084 524.571C479.77 524.791 480.563 525.172 480.846 525.419C481.129 525.665 481.995 526.09 482.77 526.364C483.544 526.637 484.505 527.09 484.905 527.37C485.305 527.65 485.867 527.879 486.153 527.879C486.439 527.879 487.266 528.185 487.991 528.559C488.715 528.933 490.056 529.396 490.97 529.589C491.885 529.782 492.973 530.156 493.389 530.419C493.804 530.682 495.001 531.049 496.049 531.235C497.096 531.421 498.701 531.852 499.615 532.192C500.529 532.532 502.549 532.969 504.104 533.161C505.658 533.354 507.902 533.738 509.091 534.014C510.448 534.328 513.109 534.53 516.24 534.555C518.983 534.576 522.05 534.716 523.056 534.864C524.061 535.012 525.857 535.074 527.046 535.002C528.234 534.929 532.873 534.735 537.353 534.57ZM280.287 533.919C280.716 533.675 282.549 533.267 284.361 533.013C286.173 532.758 288.067 532.341 288.569 532.086C289.072 531.831 290.438 531.458 291.606 531.256C292.774 531.054 294.061 530.672 294.466 530.406C294.872 530.14 295.787 529.82 296.499 529.695C297.212 529.57 298.277 529.193 298.866 528.857C299.455 528.521 300.459 528.147 301.098 528.028C301.737 527.908 302.427 527.608 302.632 527.361C302.837 527.115 303.795 526.683 304.761 526.402C305.728 526.121 306.706 525.665 306.935 525.389C307.165 525.113 307.488 524.887 307.655 524.887C308.075 524.887 309.842 524.039 311.427 523.078C312.158 522.634 313.339 521.948 314.051 521.553C314.762 521.159 315.51 520.699 315.713 520.533C316.422 519.95 319.559 517.905 319.743 517.905C320.057 517.905 327.422 512.014 329.096 510.424C332.741 506.961 335.984 503.705 337.361 502.126C338.275 501.078 339.323 499.88 339.688 499.463C341.019 497.948 341.617 497.16 342.258 496.072C342.618 495.462 343.038 494.963 343.19 494.963C343.343 494.963 343.557 494.68 343.667 494.335C343.776 493.99 344.198 493.332 344.603 492.873C345.009 492.414 345.79 491.263 346.338 490.315C346.887 489.366 347.505 488.406 347.713 488.181C348.085 487.778 349.08 486.04 350.28 483.698C350.619 483.036 351.086 482.27 351.318 481.996C351.55 481.721 351.916 480.948 352.132 480.277C352.347 479.606 352.73 478.885 352.984 478.674C353.237 478.464 353.543 477.816 353.664 477.235C353.785 476.653 354.106 475.828 354.377 475.4C354.838 474.674 355.224 473.68 356.66 469.527C356.976 468.613 357.501 467.251 357.827 466.5C358.153 465.749 358.526 464.402 358.656 463.507C358.786 462.612 359.102 461.468 359.357 460.965C359.613 460.462 360.045 458.556 360.318 456.73C360.591 454.905 360.968 453.007 361.156 452.513C362.137 449.933 362.388 430.389 361.482 427.135C361.304 426.495 360.921 425.073 360.632 423.976C360.343 422.879 359.814 421.437 359.456 420.772C359.099 420.107 358.807 419.379 358.807 419.153C358.807 418.046 354.792 412.682 351.964 410.012C350.101 408.252 346.888 405.728 344.676 404.286C342.832 403.084 335.882 399.538 335.369 399.538C335.138 399.538 334.771 399.323 334.553 399.061C334.335 398.798 333.693 398.482 333.127 398.358C332.561 398.233 331.427 397.775 330.607 397.339C329.787 396.903 328.874 396.546 328.579 396.546C328.283 396.546 327.52 396.267 326.883 395.926C326.245 395.585 324.911 395.131 323.918 394.919C322.925 394.706 321.931 394.382 321.71 394.199C321.489 394.016 320.226 393.64 318.903 393.364C317.579 393.088 316.104 392.659 315.624 392.411C315.144 392.163 313.854 391.858 312.757 391.734C311.659 391.609 309.864 391.221 308.767 390.872C306.201 390.054 294.831 388.549 286.49 387.924C275.062 387.066 266.205 386.82 260.036 387.188C256.665 387.39 249.567 387.783 244.264 388.062C237.722 388.406 233.66 388.776 231.629 389.211C229.984 389.564 227.65 389.946 226.444 390.061C225.239 390.176 223.817 390.498 223.286 390.776C222.754 391.055 221.437 391.426 220.358 391.602C219.279 391.778 218.024 392.214 217.57 392.571C217.116 392.929 216.443 393.221 216.076 393.221C214.95 393.221 209.069 396.327 205.461 398.827C203.067 400.486 198.53 404.797 197.363 406.521C196.93 407.161 196.123 408.324 195.569 409.105C195.016 409.886 194.261 411.083 193.891 411.765C193.522 412.446 193.096 413.229 192.945 413.503C191.744 415.685 190.167 419.72 189.502 422.314C189.314 423.045 188.864 424.596 188.501 425.76C188.138 426.924 187.698 429.542 187.524 431.579C187.349 433.615 186.959 435.879 186.657 436.611C186.186 437.75 186.089 439.817 185.98 451.048C185.857 463.692 186.075 468.122 186.922 470.145C187.086 470.537 187.373 472.472 187.559 474.445C187.746 476.418 188.065 478.345 188.269 478.727C188.474 479.108 188.847 480.6 189.098 482.041C189.35 483.483 189.765 485.072 190.021 485.573C190.277 486.074 190.66 487.305 190.872 488.309C191.085 489.312 191.466 490.45 191.72 490.837C191.974 491.224 192.283 492.124 192.409 492.836C192.534 493.549 192.972 494.73 193.383 495.462C193.794 496.193 194.235 497.229 194.364 497.763C194.493 498.297 194.888 499.103 195.242 499.553C195.597 500.004 195.887 500.606 195.887 500.891C195.887 501.177 196.287 502.017 196.776 502.758C198.964 506.077 199.212 506.489 199.212 506.809C199.212 506.996 199.586 507.5 200.043 507.93C200.5 508.359 200.874 508.908 200.874 509.149C200.874 509.39 201.173 509.774 201.539 510.002C201.905 510.23 202.204 510.548 202.204 510.709C202.204 511.436 209.159 518.669 211.681 520.564C212.532 521.204 213.475 521.99 213.775 522.31C214.076 522.63 214.501 522.892 214.721 522.892C214.941 522.892 215.543 523.245 216.06 523.676C216.577 524.108 217.449 524.708 217.997 525.01C219.026 525.578 219.45 525.828 221.565 527.121C222.246 527.538 222.985 527.879 223.205 527.879C223.426 527.879 224.214 528.169 224.958 528.522C226.581 529.295 229.797 530.455 231.629 530.931C232.361 531.12 234.156 531.623 235.619 532.049C237.082 532.474 239.551 532.987 241.105 533.19C242.66 533.393 244.979 533.768 246.259 534.023C249.537 534.678 279.113 534.588 280.287 533.919ZM411.007 395.763C414.573 395.473 418.389 395.072 419.486 394.872C420.583 394.672 422.528 394.354 423.808 394.166C425.088 393.978 427.183 393.606 428.463 393.338C429.743 393.071 432.338 392.568 434.229 392.221C436.121 391.873 437.85 391.438 438.071 391.254C438.293 391.07 439.588 390.75 440.95 390.542C442.311 390.335 443.874 389.957 444.423 389.703C444.971 389.448 446.664 389.024 448.184 388.76C449.704 388.496 451.137 388.124 451.368 387.932C451.598 387.741 453.347 387.359 455.253 387.083C457.16 386.808 459.318 386.37 460.05 386.111C460.781 385.852 462.577 385.532 464.04 385.4C465.502 385.267 467.095 384.957 467.578 384.711C468.061 384.465 470.23 384.097 472.399 383.893C474.567 383.689 477.009 383.308 477.826 383.048C478.642 382.787 482.124 382.346 485.563 382.068C489.002 381.79 492.177 381.425 492.617 381.258C496.646 379.726 555.687 379.75 559.077 381.285C559.886 381.651 571.186 382.557 571.882 382.311C572.128 382.224 572.628 381.464 572.994 380.621C573.622 379.172 573.666 378.156 573.815 361.634C573.965 345.047 573.823 340.253 572.961 332.708C572.783 331.154 572.467 327.866 572.257 325.402C572.047 322.938 571.743 320.674 571.581 320.37C571.418 320.067 571.061 318.006 570.787 315.791C570.513 313.576 570.075 311.352 569.815 310.848C569.554 310.344 569.237 309.034 569.109 307.937C568.982 306.84 568.614 305.419 568.293 304.779C567.972 304.139 567.6 302.867 567.468 301.953C567.335 301.038 566.961 299.833 566.636 299.274C566.311 298.715 565.936 297.667 565.802 296.946C565.668 296.225 565.286 295.186 564.953 294.638C564.619 294.089 564.177 293.005 563.97 292.227C563.764 291.45 563.463 290.814 563.301 290.814C563.14 290.814 562.76 290.066 562.456 289.152C562.153 288.237 561.789 287.489 561.649 287.489C561.509 287.489 561.148 286.928 560.848 286.243C560.548 285.557 559.889 284.38 559.384 283.627C558.88 282.874 558.03 281.603 557.497 280.801C556.277 278.967 550.973 273.663 548.991 272.294C546.714 270.723 540.349 267.646 538.85 267.393C538.118 267.269 536.592 266.86 535.459 266.484C533.578 265.859 532.819 265.813 526.814 265.956C521.895 266.072 519.936 266.241 519.066 266.623C518.426 266.904 517.08 267.242 516.074 267.374C515.068 267.505 513.647 267.879 512.915 268.205C512.184 268.53 510.912 268.903 510.089 269.034C509.266 269.165 508.144 269.54 507.596 269.867C507.047 270.194 505.925 270.569 505.102 270.699C504.279 270.829 503.157 271.203 502.608 271.53C502.06 271.857 500.938 272.231 500.115 272.361C499.292 272.491 498.17 272.865 497.621 273.192C497.072 273.519 495.95 273.893 495.127 274.024C494.304 274.154 493.182 274.528 492.634 274.855C492.085 275.182 490.963 275.556 490.14 275.686C489.317 275.816 488.195 276.19 487.646 276.517C487.098 276.844 485.975 277.218 485.153 277.348C484.33 277.479 483.208 277.853 482.659 278.18C482.11 278.507 480.988 278.881 480.165 279.011C479.342 279.141 478.22 279.513 477.672 279.838C477.123 280.163 475.93 280.535 475.019 280.666C474.109 280.796 472.838 281.169 472.193 281.495C471.549 281.821 470.229 282.256 469.26 282.461C468.29 282.667 467.093 283.038 466.6 283.287C466.106 283.536 465.052 283.839 464.258 283.961C463.464 284.082 462.267 284.457 461.598 284.793C460.929 285.128 459.573 285.507 458.585 285.633C457.596 285.76 456.372 286.078 455.866 286.34C455.359 286.602 453.41 287.047 451.535 287.329C449.66 287.61 447.94 287.994 447.714 288.183C447.151 288.649 436.955 289.789 430.464 290.11C422.378 290.51 407.134 289.398 401.864 288.023C400.767 287.736 398.758 287.347 397.401 287.156C396.044 286.966 394.757 286.665 394.542 286.486C394.327 286.308 392.828 285.931 391.21 285.649C389.592 285.367 388.09 284.988 387.872 284.807C387.654 284.626 386.449 284.264 385.194 284.002C383.04 283.553 380.498 282.807 377.094 281.626C376.271 281.34 374.761 280.916 373.738 280.683C372.716 280.45 371.519 280.023 371.078 279.735C370.638 279.447 369.604 279.109 368.781 278.985C367.958 278.861 366.836 278.5 366.288 278.182C365.739 277.864 364.556 277.426 363.658 277.209C362.761 276.991 361.717 276.597 361.34 276.333C360.962 276.069 360.344 275.852 359.967 275.852C359.589 275.852 358.687 275.545 357.963 275.17C357.238 274.795 355.897 274.283 354.983 274.031C354.069 273.78 352.728 273.264 352.003 272.884C351.279 272.505 350.381 272.194 350.008 272.193C349.636 272.191 348.882 271.893 348.333 271.53C347.785 271.167 347.036 270.868 346.671 270.866C346.305 270.864 345.108 270.415 344.011 269.867C342.914 269.32 341.746 268.872 341.417 268.871C341.087 268.871 340.264 268.586 339.588 268.239C337.83 267.336 334.954 266.201 333.15 265.697C332.297 265.459 331.249 265.04 330.823 264.765C330.396 264.489 329.448 264.16 328.716 264.033C327.985 263.906 326.938 263.536 326.389 263.212C325.84 262.888 324.718 262.518 323.895 262.39C323.072 262.261 322.066 261.945 321.658 261.686C321.25 261.428 319.856 260.993 318.56 260.721C317.264 260.448 315.899 260.062 315.527 259.863C315.155 259.664 313.858 259.36 312.645 259.188C311.433 259.017 309.199 258.576 307.682 258.209C302.616 256.984 282.647 256.995 280.351 258.224C279.966 258.43 278.281 258.82 276.607 259.091C274.933 259.362 273.376 259.739 273.146 259.929C272.917 260.12 271.861 260.481 270.799 260.733C269.737 260.985 268.276 261.498 267.551 261.872C266.827 262.246 265.985 262.553 265.68 262.553C265.375 262.553 264.946 262.769 264.726 263.034C264.506 263.299 263.777 263.692 263.106 263.908C262.435 264.123 261.662 264.487 261.387 264.716C261.113 264.945 260.365 265.396 259.725 265.718C259.085 266.039 258.486 266.411 258.395 266.542C258.303 266.674 257.734 267.035 257.13 267.345C256.526 267.655 255.756 268.162 255.418 268.472C255.081 268.782 254.257 269.41 253.587 269.867C251.415 271.349 247.633 274.545 245.76 276.481C241.886 280.485 238.778 284.195 238.778 284.816C238.778 284.988 238.574 285.248 238.324 285.395C238.075 285.541 237.619 286.109 237.313 286.658C237.006 287.207 236.385 288.179 235.933 288.819C234.938 290.227 234.766 290.486 233.289 292.798C232.651 293.798 232.128 294.787 232.128 294.997C232.128 295.207 231.851 295.736 231.512 296.172C231.172 296.608 230.716 297.514 230.497 298.185C230.278 298.857 229.882 299.586 229.617 299.806C229.353 300.025 229.135 300.449 229.134 300.746C229.134 301.044 228.686 302.185 228.138 303.283C227.591 304.38 227.143 305.579 227.142 305.947C227.141 306.316 226.852 307.156 226.499 307.814C226.147 308.472 225.761 309.592 225.642 310.303C225.524 311.013 225.155 312.268 224.823 313.091C224.491 313.914 224.119 315.41 223.996 316.416C223.874 317.422 223.494 319.217 223.152 320.406C222.761 321.765 222.393 324.725 222.162 328.385C221.959 331.586 221.634 335.177 221.438 336.365C221.238 337.58 221.188 339.4 221.323 340.521C221.639 343.153 221.646 374.041 221.33 377.324C221.092 379.801 221.112 379.909 221.971 380.767C222.693 381.49 223.053 381.615 223.918 381.446C225.817 381.075 231.477 380.635 239.109 380.264C243.224 380.064 247.264 379.76 248.087 379.59C250.427 379.104 269.825 378.867 277.013 379.236C287.402 379.77 299.61 380.825 301.95 381.391C303.139 381.679 306.056 382.067 308.434 382.253C310.811 382.439 313.28 382.802 313.92 383.059C314.56 383.317 316.729 383.681 318.741 383.868C320.752 384.055 322.922 384.425 323.562 384.689C324.202 384.954 326.147 385.324 327.884 385.512C329.621 385.7 331.478 386.08 332.009 386.358C332.54 386.635 333.962 386.958 335.168 387.075C336.373 387.193 338.183 387.561 339.189 387.893C340.195 388.226 342.082 388.661 343.382 388.86C344.683 389.06 346.169 389.442 346.684 389.709C347.2 389.977 348.455 390.298 349.473 390.422C350.492 390.546 352.003 390.913 352.833 391.237C353.663 391.56 355.234 391.933 356.324 392.065C357.415 392.197 358.905 392.495 359.637 392.727C361.618 393.354 362.303 393.477 366.117 393.891C368.035 394.099 369.756 394.389 369.941 394.535C370.359 394.867 376.205 395.459 381.914 395.748C384.291 395.869 386.46 396.095 386.735 396.252C387.493 396.686 403.68 396.359 411.007 395.763Z" fill="#247BA0"/>
</svg>
