<svg width="166" height="33" viewBox="0 0 166 33" fill="none" xmlns="http://www.w3.org/2000/svg">
<rect width="166" height="32" rx="16" fill="#121212" fill-opacity="0.21"/>
<rect x="25.2402" y="5.18323" width="17.813" height="17.813" transform="rotate(45 25.2402 5.18323)" fill="#9B977E"/>
<path d="M12.6062 17.5435L25.2357 4.91323L29.8588 22.1669L12.6062 17.5435Z" fill="#D9D9D9"/>
<path d="M37.9316 17.7102L25.2631 4.93852L20.5746 22.4365L37.9316 17.7102Z" fill="#D9D9D9"/>
<rect x="25.2402" y="6.86255" width="15.4379" height="15.4379" transform="rotate(45 25.2402 6.86255)" fill="#E8E7DD"/>
<path d="M18.7329 15.4696C18.7329 15.4696 16.2138 17.5689 16.2138 17.9888C16.2138 18.4086 17.6833 19.4583 17.6833 19.4583M30.6989 14.8399L33.428 17.569L31.9585 19.0385M30.489 20.5079L31.1187 19.8782" stroke="white" stroke-width="0.593767"/>
<path d="M47.7211 24H42.7811V10.16H47.7211C49.9744 10.16 51.4677 11.0533 52.2011 12.84C52.6277 13.8667 52.8411 15.2133 52.8411 16.88C52.8411 20.36 51.9744 22.5533 50.2411 23.46C49.5477 23.82 48.7077 24 47.7211 24ZM51.2611 16.88C51.2611 14.2267 50.6677 12.5733 49.4811 11.92C49.0011 11.6533 48.4144 11.52 47.7211 11.52H44.3211V22.64H47.7211C50.0811 22.64 51.2611 20.72 51.2611 16.88ZM62.2117 22.76L62.7917 22.7L62.8317 23.88C61.3117 24.0933 60.0117 24.2 58.9317 24.2C57.4917 24.2 56.4717 23.7867 55.8717 22.96C55.2717 22.12 54.9717 20.82 54.9717 19.06C54.9717 15.5533 56.365 13.8 59.1517 13.8C60.4983 13.8 61.505 14.18 62.1717 14.94C62.8383 15.6867 63.1717 16.8667 63.1717 18.48L63.0917 19.62H56.4917C56.4917 20.7267 56.6917 21.5467 57.0917 22.08C57.4917 22.6133 58.185 22.88 59.1717 22.88C60.1717 22.88 61.185 22.84 62.2117 22.76ZM61.6717 18.42C61.6717 17.1933 61.4717 16.3267 61.0717 15.82C60.685 15.3133 60.045 15.06 59.1517 15.06C58.2717 15.06 57.605 15.3267 57.1517 15.86C56.7117 16.3933 56.485 17.2467 56.4717 18.42H61.6717ZM68.6493 15.14C67.196 15.14 66.4693 15.6467 66.4693 16.66C66.4693 17.1267 66.636 17.46 66.9693 17.66C67.3027 17.8467 68.0627 18.0467 69.2493 18.26C70.436 18.46 71.276 18.7467 71.7693 19.12C72.2627 19.4933 72.5093 20.1933 72.5093 21.22C72.5093 22.2467 72.176 23 71.5093 23.48C70.856 23.96 69.896 24.2 68.6293 24.2C67.8027 24.2 66.8293 24.1067 65.7093 23.92L65.1093 23.82L65.1893 22.52C66.7093 22.7467 67.856 22.86 68.6293 22.86C69.4027 22.86 69.9893 22.74 70.3893 22.5C70.8027 22.2467 71.0093 21.8333 71.0093 21.26C71.0093 20.6733 70.836 20.28 70.4893 20.08C70.1427 19.8667 69.3827 19.6667 68.2093 19.48C67.036 19.2933 66.2027 19.02 65.7093 18.66C65.216 18.3 64.9693 17.6333 64.9693 16.66C64.9693 15.6867 65.3093 14.9667 65.9893 14.5C66.6827 14.0333 67.5427 13.8 68.5693 13.8C69.3827 13.8 70.4027 13.8933 71.6293 14.08L72.1893 14.18L72.1493 15.46C70.6693 15.2467 69.5027 15.14 68.6493 15.14ZM74.8062 24V14H76.3062V24H74.8062ZM74.8062 11.74V10H76.3062V11.74H74.8062ZM83.0412 28.7C81.4412 28.7 80.3212 28.48 79.6812 28.04C79.0545 27.6133 78.7412 26.8267 78.7412 25.68C78.7412 25.1333 78.8612 24.6867 79.1012 24.34C79.3412 24.0067 79.7479 23.6267 80.3212 23.2C79.9479 22.9467 79.7612 22.4867 79.7612 21.82C79.7612 21.5933 79.9279 21.1733 80.2612 20.56L80.4412 20.24C79.3879 19.76 78.8612 18.7533 78.8612 17.22C78.8612 14.94 80.1079 13.8 82.6012 13.8C83.2412 13.8 83.8345 13.8667 84.3812 14L84.6812 14.06L87.6412 13.98V15.26L85.7412 15.22C86.1812 15.66 86.4012 16.3267 86.4012 17.22C86.4012 18.4733 86.0879 19.3533 85.4612 19.86C84.8479 20.3533 83.8745 20.6 82.5412 20.6C82.1812 20.6 81.8545 20.5733 81.5612 20.52C81.3212 21.1067 81.2012 21.4867 81.2012 21.66C81.2012 22.0733 81.3279 22.3333 81.5812 22.44C81.8345 22.5333 82.6012 22.58 83.8812 22.58C85.1612 22.58 86.0812 22.78 86.6412 23.18C87.2012 23.58 87.4812 24.36 87.4812 25.52C87.4812 27.64 86.0012 28.7 83.0412 28.7ZM80.2212 25.56C80.2212 26.2667 80.4145 26.7533 80.8012 27.02C81.2012 27.3 81.9279 27.44 82.9812 27.44C84.0479 27.44 84.8079 27.2933 85.2612 27C85.7279 26.7067 85.9612 26.2133 85.9612 25.52C85.9612 24.84 85.7945 24.4 85.4612 24.2C85.1279 24 84.4745 23.9 83.5012 23.9L81.3412 23.8C80.9012 24.12 80.6012 24.4 80.4412 24.64C80.2945 24.88 80.2212 25.1867 80.2212 25.56ZM80.3612 17.22C80.3612 18.0067 80.5345 18.5667 80.8812 18.9C81.2412 19.2333 81.8279 19.4 82.6412 19.4C83.4545 19.4 84.0345 19.2333 84.3812 18.9C84.7279 18.5667 84.9012 18.0067 84.9012 17.22C84.9012 16.42 84.7279 15.8533 84.3812 15.52C84.0345 15.1867 83.4545 15.02 82.6412 15.02C81.8279 15.02 81.2412 15.1933 80.8812 15.54C80.5345 15.8733 80.3612 16.4333 80.3612 17.22ZM90.9546 24H89.4546V14H90.9346V14.7C92.0146 14.1 93.048 13.8 94.0346 13.8C95.368 13.8 96.2613 14.16 96.7146 14.88C97.1813 15.6 97.4146 16.88 97.4146 18.72V24H95.9346V18.76C95.9346 17.3733 95.7946 16.4267 95.5146 15.92C95.248 15.4 94.668 15.14 93.7746 15.14C93.348 15.14 92.8946 15.2067 92.4146 15.34C91.948 15.46 91.588 15.58 91.3346 15.7L90.9546 15.88V24ZM106.291 19.84C106.291 21.84 107.371 22.84 109.531 22.84C110.651 22.84 111.491 22.6067 112.051 22.14C112.625 21.66 112.911 20.8933 112.911 19.84V10.16H114.431V19.8C114.431 21.3467 114.018 22.4667 113.191 23.16C112.378 23.8533 111.171 24.2 109.571 24.2C107.971 24.2 106.765 23.8533 105.951 23.16C105.151 22.4667 104.751 21.3467 104.751 19.8V10.16H106.291V19.84ZM118.142 10.16L121.642 16.08L125.162 10.16H126.822L122.562 17.18L126.822 24H125.082L121.602 18.26L118.062 24H116.402L120.682 17.22L116.402 10.16H118.142ZM127.815 23.8L133.455 9.84L134.795 10.34L129.155 24.28L127.815 23.8ZM138.557 19.84C138.557 21.84 139.637 22.84 141.797 22.84C142.917 22.84 143.757 22.6067 144.317 22.14C144.89 21.66 145.177 20.8933 145.177 19.84V10.16H146.697V19.8C146.697 21.3467 146.284 22.4667 145.457 23.16C144.644 23.8533 143.437 24.2 141.837 24.2C140.237 24.2 139.03 23.8533 138.217 23.16C137.417 22.4667 137.017 21.3467 137.017 19.8V10.16H138.557V19.84ZM149.988 24V10.16H151.528V24H149.988Z" fill="#F4F9FD"/>
</svg>
