<svg width="154" height="33" viewBox="0 0 154 33" fill="none" xmlns="http://www.w3.org/2000/svg">
<rect width="154" height="32" rx="16" fill="#121212" fill-opacity="0.21"/>
<rect x="27.2402" y="5.18323" width="17.813" height="17.813" transform="rotate(45 27.2402 5.18323)" fill="#9B977E"/>
<path d="M14.6062 17.5435L27.2357 4.91323L31.8588 22.1669L14.6062 17.5435Z" fill="#D9D9D9"/>
<path d="M39.9316 17.71L27.2631 4.9384L22.5746 22.4364L39.9316 17.71Z" fill="#D9D9D9"/>
<rect x="27.2402" y="6.86255" width="15.4379" height="15.4379" transform="rotate(45 27.2402 6.86255)" fill="#E8E7DD"/>
<path d="M20.7329 15.4696C20.7329 15.4696 18.2138 17.5689 18.2138 17.9888C18.2138 18.4086 19.6833 19.4583 19.6833 19.4583M32.6989 14.8399L35.428 17.569L33.9585 19.0385M32.489 20.5079L33.1187 19.8782" stroke="white" stroke-width="0.593767"/>
<path d="M44.7 23V9.16H53.12V10.52H46.24V15.3H51.92V16.64H46.24V21.64H53.12V23H44.7ZM56.9947 23H55.4947V13H56.9747V13.7C58.0547 13.1 59.088 12.8 60.0747 12.8C61.408 12.8 62.3014 13.16 62.7547 13.88C63.2214 14.6 63.4547 15.88 63.4547 17.72V23H61.9747V17.76C61.9747 16.3733 61.8347 15.4267 61.5547 14.92C61.288 14.4 60.708 14.14 59.8147 14.14C59.388 14.14 58.9347 14.2067 58.4547 14.34C57.988 14.46 57.628 14.58 57.3747 14.7L56.9947 14.88V23ZM70.0969 27.7C68.4969 27.7 67.3769 27.48 66.7369 27.04C66.1102 26.6133 65.7969 25.8267 65.7969 24.68C65.7969 24.1333 65.9169 23.6867 66.1569 23.34C66.3969 23.0067 66.8035 22.6267 67.3769 22.2C67.0035 21.9467 66.8169 21.4867 66.8169 20.82C66.8169 20.5933 66.9835 20.1733 67.3169 19.56L67.4969 19.24C66.4435 18.76 65.9169 17.7533 65.9169 16.22C65.9169 13.94 67.1635 12.8 69.6569 12.8C70.2969 12.8 70.8902 12.8667 71.4369 13L71.7369 13.06L74.6969 12.98V14.26L72.7969 14.22C73.2369 14.66 73.4569 15.3267 73.4569 16.22C73.4569 17.4733 73.1435 18.3533 72.5169 18.86C71.9035 19.3533 70.9302 19.6 69.5969 19.6C69.2369 19.6 68.9102 19.5733 68.6169 19.52C68.3769 20.1067 68.2569 20.4867 68.2569 20.66C68.2569 21.0733 68.3835 21.3333 68.6369 21.44C68.8902 21.5333 69.6569 21.58 70.9369 21.58C72.2169 21.58 73.1369 21.78 73.6969 22.18C74.2569 22.58 74.5369 23.36 74.5369 24.52C74.5369 26.64 73.0569 27.7 70.0969 27.7ZM67.2769 24.56C67.2769 25.2667 67.4702 25.7533 67.8569 26.02C68.2569 26.3 68.9835 26.44 70.0369 26.44C71.1035 26.44 71.8635 26.2933 72.3169 26C72.7835 25.7067 73.0169 25.2133 73.0169 24.52C73.0169 23.84 72.8502 23.4 72.5169 23.2C72.1835 23 71.5302 22.9 70.5569 22.9L68.3969 22.8C67.9569 23.12 67.6569 23.4 67.4969 23.64C67.3502 23.88 67.2769 24.1867 67.2769 24.56ZM67.4169 16.22C67.4169 17.0067 67.5902 17.5667 67.9369 17.9C68.2969 18.2333 68.8835 18.4 69.6969 18.4C70.5102 18.4 71.0902 18.2333 71.4369 17.9C71.7835 17.5667 71.9569 17.0067 71.9569 16.22C71.9569 15.42 71.7835 14.8533 71.4369 14.52C71.0902 14.1867 70.5102 14.02 69.6969 14.02C68.8835 14.02 68.2969 14.1933 67.9369 14.54C67.5902 14.8733 67.4169 15.4333 67.4169 16.22ZM76.5103 23V13H78.0103V23H76.5103ZM76.5103 10.74V9H78.0103V10.74H76.5103ZM82.3853 23H80.8853V13H82.3653V13.7C83.4453 13.1 84.4786 12.8 85.4653 12.8C86.7986 12.8 87.692 13.16 88.1453 13.88C88.612 14.6 88.8453 15.88 88.8453 17.72V23H87.3653V17.76C87.3653 16.3733 87.2253 15.4267 86.9453 14.92C86.6786 14.4 86.0986 14.14 85.2053 14.14C84.7786 14.14 84.3253 14.2067 83.8453 14.34C83.3786 14.46 83.0186 14.58 82.7653 14.7L82.3853 14.88V23ZM98.4275 21.76L99.0075 21.7L99.0475 22.88C97.5275 23.0933 96.2275 23.2 95.1475 23.2C93.7075 23.2 92.6875 22.7867 92.0875 21.96C91.4875 21.12 91.1875 19.82 91.1875 18.06C91.1875 14.5533 92.5808 12.8 95.3675 12.8C96.7142 12.8 97.7208 13.18 98.3875 13.94C99.0542 14.6867 99.3875 15.8667 99.3875 17.48L99.3075 18.62H92.7075C92.7075 19.7267 92.9075 20.5467 93.3075 21.08C93.7075 21.6133 94.4008 21.88 95.3875 21.88C96.3875 21.88 97.4008 21.84 98.4275 21.76ZM97.8875 17.42C97.8875 16.1933 97.6875 15.3267 97.2875 14.82C96.9008 14.3133 96.2608 14.06 95.3675 14.06C94.4875 14.06 93.8208 14.3267 93.3675 14.86C92.9275 15.3933 92.7008 16.2467 92.6875 17.42H97.8875ZM108.525 21.76L109.105 21.7L109.145 22.88C107.625 23.0933 106.325 23.2 105.245 23.2C103.805 23.2 102.785 22.7867 102.185 21.96C101.585 21.12 101.285 19.82 101.285 18.06C101.285 14.5533 102.678 12.8 105.465 12.8C106.812 12.8 107.818 13.18 108.485 13.94C109.152 14.6867 109.485 15.8667 109.485 17.48L109.405 18.62H102.805C102.805 19.7267 103.005 20.5467 103.405 21.08C103.805 21.6133 104.498 21.88 105.485 21.88C106.485 21.88 107.498 21.84 108.525 21.76ZM107.985 17.42C107.985 16.1933 107.785 15.3267 107.385 14.82C106.998 14.3133 106.358 14.06 105.465 14.06C104.585 14.06 103.918 14.3267 103.465 14.86C103.025 15.3933 102.798 16.2467 102.785 17.42H107.985ZM111.823 23V13H113.303V14.36C114.463 13.56 115.683 13.0333 116.963 12.78V14.3C116.403 14.4067 115.816 14.5733 115.203 14.8C114.603 15.0267 114.143 15.2267 113.823 15.4L113.323 15.66V23H111.823ZM118.737 23V13H120.237V23H118.737ZM118.737 10.74V9H120.237V10.74H118.737ZM124.612 23H123.112V13H124.592V13.7C125.672 13.1 126.705 12.8 127.692 12.8C129.025 12.8 129.919 13.16 130.372 13.88C130.839 14.6 131.072 15.88 131.072 17.72V23H129.592V17.76C129.592 16.3733 129.452 15.4267 129.172 14.92C128.905 14.4 128.325 14.14 127.432 14.14C127.005 14.14 126.552 14.2067 126.072 14.34C125.605 14.46 125.245 14.58 124.992 14.7L124.612 14.88V23ZM137.714 27.7C136.114 27.7 134.994 27.48 134.354 27.04C133.727 26.6133 133.414 25.8267 133.414 24.68C133.414 24.1333 133.534 23.6867 133.774 23.34C134.014 23.0067 134.421 22.6267 134.994 22.2C134.621 21.9467 134.434 21.4867 134.434 20.82C134.434 20.5933 134.601 20.1733 134.934 19.56L135.114 19.24C134.061 18.76 133.534 17.7533 133.534 16.22C133.534 13.94 134.781 12.8 137.274 12.8C137.914 12.8 138.507 12.8667 139.054 13L139.354 13.06L142.314 12.98V14.26L140.414 14.22C140.854 14.66 141.074 15.3267 141.074 16.22C141.074 17.4733 140.761 18.3533 140.134 18.86C139.521 19.3533 138.547 19.6 137.214 19.6C136.854 19.6 136.527 19.5733 136.234 19.52C135.994 20.1067 135.874 20.4867 135.874 20.66C135.874 21.0733 136.001 21.3333 136.254 21.44C136.507 21.5333 137.274 21.58 138.554 21.58C139.834 21.58 140.754 21.78 141.314 22.18C141.874 22.58 142.154 23.36 142.154 24.52C142.154 26.64 140.674 27.7 137.714 27.7ZM134.894 24.56C134.894 25.2667 135.087 25.7533 135.474 26.02C135.874 26.3 136.601 26.44 137.654 26.44C138.721 26.44 139.481 26.2933 139.934 26C140.401 25.7067 140.634 25.2133 140.634 24.52C140.634 23.84 140.467 23.4 140.134 23.2C139.801 23 139.147 22.9 138.174 22.9L136.014 22.8C135.574 23.12 135.274 23.4 135.114 23.64C134.967 23.88 134.894 24.1867 134.894 24.56ZM135.034 16.22C135.034 17.0067 135.207 17.5667 135.554 17.9C135.914 18.2333 136.501 18.4 137.314 18.4C138.127 18.4 138.707 18.2333 139.054 17.9C139.401 17.5667 139.574 17.0067 139.574 16.22C139.574 15.42 139.401 14.8533 139.054 14.52C138.707 14.1867 138.127 14.02 137.314 14.02C136.501 14.02 135.914 14.1933 135.554 14.54C135.207 14.8733 135.034 15.4333 135.034 16.22Z" fill="#F4F9FD"/>
</svg>
