<svg width="113" height="32" viewBox="0 0 113 32" fill="none" xmlns="http://www.w3.org/2000/svg">
<rect width="113" height="31" rx="15.5" fill="#121212" fill-opacity="0.21"/>
<rect x="84.2402" y="4.18311" width="17.813" height="17.813" transform="rotate(45 84.2402 4.18311)" fill="#9B977E"/>
<path d="M71.6062 16.5435L84.2357 3.91323L88.8588 21.1669L71.6062 16.5435Z" fill="#D9D9D9"/>
<path d="M96.9316 16.71L84.2631 3.9384L79.5746 21.4364L96.9316 16.71Z" fill="#D9D9D9"/>
<rect x="84.2402" y="5.86255" width="15.4379" height="15.4379" transform="rotate(45 84.2402 5.86255)" fill="#E8E7DD"/>
<path d="M77.7329 14.4695C77.7329 14.4695 75.2138 16.5688 75.2138 16.9887C75.2138 17.4085 76.6833 18.4581 76.6833 18.4581M89.6989 13.8398L92.428 16.5688L90.9585 18.0383M89.489 19.5078L90.1187 18.878" stroke="white" stroke-width="0.593767"/>
<path d="M17.72 15.14C17.72 17.1667 17.9867 18.6267 18.52 19.52C19.0533 20.4 20.08 20.84 21.6 20.84C23.1333 20.84 24.16 20.4067 24.68 19.54C25.2133 18.6733 25.48 17.22 25.48 15.18C25.48 13.14 25.2067 11.6533 24.66 10.72C24.1133 9.78667 23.0867 9.32 21.58 9.32C20.0867 9.32 19.0667 9.78667 18.52 10.72C17.9867 11.64 17.72 13.1133 17.72 15.14ZM27.08 15.18C27.08 17.6467 26.6867 19.4333 25.9 20.54C25.1133 21.6467 23.68 22.2 21.6 22.2C19.5333 22.2 18.1067 21.6333 17.32 20.5C16.5333 19.3667 16.14 17.5867 16.14 15.16C16.14 12.72 16.54 10.9133 17.34 9.74C18.14 8.55333 19.56 7.96 21.6 7.96C23.64 7.96 25.06 8.54667 25.86 9.72C26.6733 10.8933 27.08 12.7133 27.08 15.18ZM34.8231 13.3H31.6431V18.08C31.6431 19.2267 31.7231 19.98 31.8831 20.34C32.0565 20.7 32.4565 20.88 33.0831 20.88L34.8631 20.76L34.9631 22C34.0698 22.1467 33.3898 22.22 32.9231 22.22C31.8831 22.22 31.1631 21.9667 30.7631 21.46C30.3631 20.9533 30.1631 19.9867 30.1631 18.56V13.3H28.7431V12H30.1631V8.94H31.6431V12H34.8231V13.3ZM38.1548 22H36.6548V7.64H38.1548V12.56C39.2215 12.0533 40.2482 11.8 41.2348 11.8C42.5682 11.8 43.4615 12.16 43.9148 12.88C44.3815 13.6 44.6148 14.88 44.6148 16.72V22H43.1148V16.76C43.1148 15.3733 42.9748 14.4267 42.6948 13.92C42.4282 13.4 41.8548 13.14 40.9748 13.14C40.1348 13.14 39.3215 13.2933 38.5348 13.6L38.1548 13.74V22ZM54.197 20.76L54.777 20.7L54.817 21.88C53.297 22.0933 51.997 22.2 50.917 22.2C49.477 22.2 48.457 21.7867 47.857 20.96C47.257 20.12 46.957 18.82 46.957 17.06C46.957 13.5533 48.3504 11.8 51.137 11.8C52.4837 11.8 53.4904 12.18 54.157 12.94C54.8237 13.6867 55.157 14.8667 55.157 16.48L55.077 17.62H48.477C48.477 18.7267 48.677 19.5467 49.077 20.08C49.477 20.6133 50.1704 20.88 51.157 20.88C52.157 20.88 53.1704 20.84 54.197 20.76ZM53.657 16.42C53.657 15.1933 53.457 14.3267 53.057 13.82C52.6704 13.3133 52.0304 13.06 51.137 13.06C50.257 13.06 49.5904 13.3267 49.137 13.86C48.697 14.3933 48.4704 15.2467 48.457 16.42H53.657ZM57.4947 22V12H58.9747V13.36C60.1347 12.56 61.3547 12.0333 62.6347 11.78V13.3C62.0747 13.4067 61.488 13.5733 60.8747 13.8C60.2747 14.0267 59.8147 14.2267 59.4947 14.4L58.9947 14.66V22H57.4947Z" fill="#F4F9FD"/>
</svg>
