<svg width="123" height="32" viewBox="0 0 123 32" fill="none" xmlns="http://www.w3.org/2000/svg">
<rect width="123" height="32" rx="16" fill="#121212" fill-opacity="0.21"/>
<path d="M92.5 30L81 20L92.5 10L104 20L92.5 30Z" fill="#9B977E"/>
<path d="M104 7L104 20L93 15L81 20L81 7L104 7Z" fill="#D9D9D9"/>
<path d="M102.5 9H83V19.5L92.5 27.5L102.5 19.5V9Z" fill="#E8E7DD"/>
<path d="M85 16C85 16 84.7033 19.2031 85.0001 19.5C85.297 19.7969 87.5001 21.5 87.5001 21.5M97.1479 10H101.007V12.0782M101.007 14.1564V13.2657" stroke="white" stroke-width="0.593767"/>
<path d="M13.76 17.34H10.24V22H8.7V8.16H13.76C15.2667 8.16 16.38 8.52667 17.1 9.26C17.82 9.99333 18.18 11.1133 18.18 12.62C18.18 15.7667 16.7067 17.34 13.76 17.34ZM10.24 15.98H13.74C15.6467 15.98 16.6 14.86 16.6 12.62C16.6 11.5533 16.3733 10.7733 15.92 10.28C15.4667 9.77333 14.74 9.52 13.74 9.52H10.24V15.98ZM20.2955 22V12H21.7755V13.36C22.9355 12.56 24.1555 12.0333 25.4355 11.78V13.3C24.8755 13.4067 24.2888 13.5733 23.6755 13.8C23.0755 14.0267 22.6155 14.2267 22.2955 14.4L21.7955 14.66V22H20.2955ZM26.5742 16.98C26.5742 15.1533 26.9009 13.8333 27.5542 13.02C28.2076 12.2067 29.3076 11.8 30.8542 11.8C32.4142 11.8 33.5142 12.2067 34.1542 13.02C34.8076 13.8333 35.1342 15.1533 35.1342 16.98C35.1342 18.8067 34.8276 20.1333 34.2142 20.96C33.6009 21.7867 32.4809 22.2 30.8542 22.2C29.2276 22.2 28.1076 21.7867 27.4942 20.96C26.8809 20.1333 26.5742 18.8067 26.5742 16.98ZM28.1142 16.96C28.1142 18.4133 28.2876 19.4333 28.6342 20.02C28.9942 20.6067 29.7342 20.9 30.8542 20.9C31.9876 20.9 32.7276 20.6133 33.0742 20.04C33.4209 19.4533 33.5942 18.4267 33.5942 16.96C33.5942 15.4933 33.4009 14.4867 33.0142 13.94C32.6276 13.38 31.9076 13.1 30.8542 13.1C29.8142 13.1 29.0942 13.38 28.6942 13.94C28.3076 14.4867 28.1142 15.4933 28.1142 16.96ZM45.2606 7.64V22H43.7806V21.32C42.754 21.9067 41.7406 22.2 40.7406 22.2C40.2073 22.2 39.7406 22.1333 39.3406 22C38.9406 21.8667 38.5673 21.6267 38.2206 21.28C37.5006 20.56 37.1406 19.2333 37.1406 17.3C37.1406 15.3533 37.4606 13.9533 38.1006 13.1C38.754 12.2333 39.8273 11.8 41.3206 11.8C42.094 11.8 42.914 11.8867 43.7806 12.06V7.64H45.2606ZM39.3806 20.2C39.594 20.4533 39.8206 20.6267 40.0606 20.72C40.3006 20.8133 40.6073 20.86 40.9806 20.86C41.3673 20.86 41.794 20.8 42.2606 20.68C42.7406 20.5467 43.114 20.42 43.3806 20.3L43.7806 20.12V13.34C42.9273 13.18 42.134 13.1 41.4006 13.1C40.3873 13.1 39.6806 13.4267 39.2806 14.08C38.8806 14.72 38.6806 15.72 38.6806 17.08C38.6806 18.6267 38.914 19.6667 39.3806 20.2ZM54.4066 12H55.9066V22H54.4066V21.3C53.4066 21.9 52.4199 22.2 51.4466 22.2C50.0866 22.2 49.1799 21.8467 48.7266 21.14C48.2866 20.4333 48.0666 19.1267 48.0666 17.22V12H49.5666V17.2C49.5666 18.6533 49.6932 19.6267 49.9466 20.12C50.1999 20.6133 50.7732 20.86 51.6666 20.86C52.1066 20.86 52.5532 20.8 53.0066 20.68C53.4599 20.5467 53.8066 20.42 54.0466 20.3L54.4066 20.12V12ZM62.5316 11.8C62.9716 11.8 63.7182 11.88 64.7716 12.04L65.2516 12.1L65.1916 13.32C64.1249 13.2 63.3382 13.14 62.8316 13.14C61.6982 13.14 60.9249 13.4133 60.5116 13.96C60.1116 14.4933 59.9116 15.4933 59.9116 16.96C59.9116 18.4133 60.0982 19.4267 60.4716 20C60.8582 20.5733 61.6516 20.86 62.8516 20.86L65.2116 20.68L65.2716 21.92C64.0316 22.1067 63.1049 22.2 62.4916 22.2C60.9316 22.2 59.8516 21.8 59.2516 21C58.6649 20.2 58.3716 18.8533 58.3716 16.96C58.3716 15.0533 58.6916 13.72 59.3316 12.96C59.9716 12.1867 61.0382 11.8 62.5316 11.8ZM72.6825 13.3H69.5025V18.08C69.5025 19.2267 69.5825 19.98 69.7425 20.34C69.9158 20.7 70.3158 20.88 70.9425 20.88L72.7225 20.76L72.8225 22C71.9292 22.1467 71.2492 22.22 70.7825 22.22C69.7425 22.22 69.0225 21.9667 68.6225 21.46C68.2225 20.9533 68.0225 19.9867 68.0225 18.56V13.3H66.6025V12H68.0225V8.94H69.5025V12H72.6825V13.3Z" fill="#F4F9FD"/>
</svg>
