<svg width="54" height="54" viewBox="0 0 54 54" fill="none" xmlns="http://www.w3.org/2000/svg">
<g clip-path="url(#clip0_1851_22804)">
<path d="M53.8617 50.5042C53.8617 52.3563 52.3562 53.8619 50.504 53.8619H3.49589C1.64386 53.8619 0.138184 52.3563 0.138184 50.5042V3.49589C0.138184 1.64386 1.64386 0.138184 3.49589 0.138184H50.504C52.3562 0.138184 53.8617 1.64386 53.8617 3.49589V50.5042Z" fill="#FFFAEB"/>
<g clip-path="url(#clip1_1851_22804)">
<path fill-rule="evenodd" clip-rule="evenodd" d="M18.381 2.03404C18.617 2.09008 18.9363 2.18815 19.089 2.27221C19.2417 2.35627 19.4776 2.65048 19.6025 2.93069C19.783 3.28094 19.8524 3.77129 19.8524 5.67666L33.8847 5.60661L33.954 4.33169C33.9957 3.46306 34.0929 2.95871 34.2594 2.69251C34.3983 2.48236 34.7175 2.23018 34.9535 2.1181C35.2727 1.99201 35.5642 1.96399 36.8974 2.04805C37.1611 2.10409 37.5498 2.35627 37.758 2.58043C38.1189 2.98672 38.1467 3.08479 38.1467 5.67666H40.5341C42.2276 5.67666 43.1853 5.7327 43.7683 5.88681C44.2264 6.0129 45.0037 6.30711 45.5034 6.55929C46.0448 6.82548 46.7665 7.37187 47.3218 7.91826C47.8215 8.42263 48.4184 9.13714 48.6405 9.52943C48.8626 9.90771 49.1957 10.6362 49.737 12.0512L49.7648 28.3449C49.8064 42.6352 49.7787 44.7367 49.5844 45.5774C49.4733 46.0957 49.1818 46.9223 48.9319 47.4266C48.6404 48.0431 48.1546 48.6876 47.4467 49.4021C46.7666 50.1026 46.1003 50.6209 45.5312 50.9151C45.0592 51.1534 44.2125 51.4756 43.6573 51.6296C42.6856 51.9099 42.3109 51.9099 10.4545 51.8399L9.41349 51.4616C8.84438 51.2514 7.94213 50.7751 7.41466 50.4108C6.88719 50.0325 6.17927 49.3881 5.83226 48.9678C5.49912 48.5474 5.04106 47.8469 4.83285 47.4266C4.62463 47.0064 4.34702 46.2779 4.22209 45.8155C4.02776 45.073 4 43.0976 4 28.7933C4 14.7411 4.02776 12.4996 4.20821 11.7711C4.33314 11.3087 4.62463 10.5241 4.8606 10.0198C5.1521 9.40336 5.62405 8.77288 6.34584 8.04436C7.05376 7.32984 7.69228 6.83949 8.30303 6.53127C8.80274 6.2931 9.5523 5.99889 9.96872 5.88681C10.5101 5.74671 11.4679 5.67666 15.7292 5.67666L15.6182 4.55585C15.5349 3.63119 15.5626 3.35099 15.757 2.93069C15.9097 2.63647 16.2012 2.31424 16.4788 2.17414C16.798 2.00602 18.0757 1.96399 18.381 2.03404ZM11.6622 11.5329C11.3429 11.701 10.8571 12.0793 10.5795 12.3735C10.3019 12.6536 9.9132 13.2141 9.70498 13.5924L9.34409 14.2929V43.1536C9.81603 44.1343 10.1908 44.6947 10.4823 45.0309C10.7877 45.3812 11.3568 45.8015 11.8426 46.0396L12.6755 46.4459L41.2698 46.3759C42.2414 45.8996 42.7967 45.4933 43.1298 45.157C43.463 44.8208 43.9071 44.2044 44.1015 43.7841L44.4624 43.0135C44.4624 15.918 44.4485 14.6571 44.2264 14.0126C44.1015 13.6344 43.7128 13.0039 43.3797 12.6116C43.0466 12.2334 42.4358 11.729 42.0194 11.4909C41.3392 11.1126 41.131 11.0705 39.6735 11.0285L38.0772 10.9724C37.8968 12.1353 37.7857 12.5836 37.7163 12.7237C37.6469 12.8498 37.3832 13.088 37.1333 13.2421C36.8974 13.3962 35.5226 13.5223 35.3005 13.5223C35.0923 13.5223 34.7314 13.4242 34.5093 13.3121C34.2872 13.2001 33.9957 12.9059 33.8847 12.6817C33.7736 12.4575 33.6765 11.9812 33.6765 11.6309V11.0005H20.13C20.13 11.8131 20.0606 12.2614 19.9634 12.5276C19.8663 12.7798 19.5887 13.116 19.3666 13.2561C19.1306 13.3962 18.7142 13.5223 18.4227 13.5223C18.034 13.5223 16.7842 13.4102 16.4094 13.074C15.9652 12.6677 15.8958 12.5276 15.8541 11.8131L15.7986 11.0005C13.5916 11.0145 12.8004 11.0705 12.606 11.1266C12.4117 11.1826 11.9814 11.3788 11.6622 11.5329Z" fill="#59A1B5"/>
<path fill-rule="evenodd" clip-rule="evenodd" d="M33.9988 5.19145C34.0257 5.37905 34.0257 5.60685 33.9853 5.70065C33.9182 5.82125 33.2532 5.84805 19.396 5.79445L33.9048 5.72745L33.9182 5.28525C33.9317 4.93684 33.9451 4.91004 33.9988 5.19145ZM14.3606 5.78105C15.502 5.78105 15.9854 5.80785 15.4348 5.82125C14.8843 5.84805 13.9444 5.84805 13.3535 5.82125C12.7627 5.80785 13.2193 5.78105 14.3606 5.78105ZM40.1416 5.78105C41.2829 5.78105 41.7663 5.80785 41.2158 5.82125C40.6652 5.84805 39.7253 5.84805 39.1345 5.82125C38.5437 5.80785 39.0002 5.78105 40.1416 5.78105ZM16 8.89615V11L14.9246 10.9937C13.5281 11.0339 13.273 11.0741 12.6419 11.3958C12.2659 11.5967 11.7288 11.9853 11.4603 12.2534C11.1917 12.5348 10.8158 13.0573 10.2652 14.1026V41.7069L10.5606 42.31C10.7218 42.6449 11.0843 43.181 11.3663 43.5025C11.6617 43.8376 12.2122 44.2396 13.4879 44.856L41.1486 44.789L41.7528 44.4942C42.0885 44.3334 42.6257 43.9448 42.9479 43.6232C43.2701 43.3015 43.6998 42.7119 44.237 41.5729V28.0388C44.237 15.657 44.2235 14.451 44.0087 13.8345C43.8878 13.4593 43.5119 12.8563 43.1896 12.4945C42.8673 12.1193 42.2765 11.6503 41.8737 11.4225C41.2023 11.0473 41.2992 11.067 38.2511 11V11.5C38.2914 11.5402 38.2511 11.7412 38.2511 11.5C38.2108 11.4598 38.2511 11 38.2511 9L40.4772 8.9703C42.6525 9.0105 42.9613 9.03729 43.5253 9.31871C43.8878 9.47947 44.4518 9.88153 44.8009 10.2031C45.2038 10.5649 45.5931 11.1143 46.2511 12.4945V43.3149L45.9154 44.119C45.714 44.6014 45.3514 45.1642 44.9754 45.526C44.6398 45.861 44.1027 46.2764 43.767 46.4372C43.4313 46.598 42.8271 46.7856 42.4242 46.866C41.9408 46.9598 36.6504 47 27.2511 47C17.3953 47 12.5613 46.9598 12.0108 46.8526C11.5677 46.7722 10.9098 46.5444 10.5472 46.3568C10.1847 46.1558 9.67442 45.7538 9.41929 45.459C9.15074 45.1642 8.7882 44.588 8.2511 43.449V27.9718C8.2511 13.7006 8.26452 12.441 8.47936 11.8915C8.60021 11.5565 8.90905 11.0339 9.15074 10.7257C9.39244 10.4175 9.76841 10.0289 9.99668 9.85468C10.2115 9.69392 10.7352 9.41252 11.138 9.25169C11.8094 8.98369 11.5958 8.89615 16 8.89615ZM20.2511 8.94349L33.729 8.98366V9.3455C33.729 9.55988 33.8901 10.0021 33.729 10.9937H20.2511V8.94349Z" fill="#FFFEFD"/>
<path d="M23.9963 16.3387C23.3127 16.5251 22.2125 16.9315 21.5789 17.2533C20.9455 17.5751 19.9285 18.2525 19.3283 18.7437C18.7282 19.2348 17.878 20.1325 17.4278 20.7422C16.9944 21.3349 16.4609 22.1648 16.2442 22.5882C16.0274 23.0116 15.6941 23.8415 15.494 24.4512C15.2106 25.298 15.0939 26.094 15.0272 27.8384C14.9605 29.6675 15.0105 30.3958 15.2439 31.4797C15.4106 32.2249 15.8608 33.4782 16.2608 34.2741C16.7276 35.2226 17.3612 36.1372 18.1114 36.967C18.7282 37.6444 19.7785 38.559 20.412 38.9994C21.0788 39.4567 22.1958 39.9986 22.996 40.2695C23.7795 40.5236 25.0132 40.8115 25.7468 40.9132C26.4803 40.9978 27.5972 41.0317 28.2474 40.964C28.8976 40.9132 29.8645 40.7438 30.4146 40.6083C30.9648 40.4559 32.0151 40.0494 32.7486 39.6937C33.6989 39.2365 34.4657 38.6945 35.3993 37.8138C36.1162 37.1194 36.9998 36.1033 37.3499 35.5444C37.8666 34.7483 38 34.3588 38 33.7661C38 33.3427 37.8833 32.8346 37.7499 32.6145C37.6166 32.4112 37.2665 32.1232 36.9998 31.9877C36.7331 31.8523 36.3162 31.7337 36.0828 31.7337C35.8494 31.7337 35.4327 31.8523 35.1659 31.9877C34.8659 32.1402 34.4657 32.5974 34.1823 33.1225C33.9156 33.6137 33.2988 34.4096 32.7986 34.8838C32.3152 35.358 31.5149 35.9508 31.0481 36.1879C30.5647 36.442 29.8145 36.7299 29.381 36.8316C28.931 36.9162 27.9807 37.0009 27.2471 37.0009C26.5136 37.0009 25.5467 36.9162 25.0799 36.8146C24.6298 36.713 23.8295 36.425 23.3294 36.171C22.8293 35.917 21.9624 35.2903 21.4122 34.7654C20.8621 34.2403 20.1786 33.3596 19.8785 32.8176C19.5951 32.2757 19.2284 31.3273 19.0949 30.7176C18.9449 30.1079 18.8282 29.1086 18.8282 28.4651C18.8282 27.8384 18.9449 26.8222 19.0783 26.1787C19.2116 25.552 19.5951 24.5867 19.9285 24.0278C20.2453 23.4688 20.8621 22.639 21.2955 22.1987C21.729 21.7583 22.5626 21.1317 23.1627 20.8268C23.7629 20.522 24.6965 20.1663 25.2466 20.0478C25.8468 19.9292 26.897 19.8614 27.8306 19.9123C29.231 19.98 29.5644 20.0478 30.7148 20.6067C31.415 20.9454 32.3486 21.5551 32.7653 21.9446C33.1988 22.3511 33.7823 23.0793 34.0656 23.5874C34.349 24.0955 34.7658 24.6544 34.9992 24.8238C35.2659 25.027 35.6828 25.1455 36.1496 25.1286C36.7497 25.1286 36.9665 25.027 37.4332 24.5358C37.9 24.0447 38 23.8076 38 23.2148C38 22.7237 37.8333 22.2156 37.4832 21.5721C37.1831 21.0639 36.383 20.0647 35.6828 19.3703C34.6991 18.3711 34.0656 17.9138 32.832 17.2872C31.9484 16.8299 30.7314 16.3726 30.0812 16.2371C29.4311 16.1016 28.0974 16 27.0804 16C25.8134 16 24.8632 16.1016 23.9963 16.3387Z" fill="#59A1B5"/>
</g>
</g>
<defs>
<clipPath id="clip0_1851_22804">
<rect width="54" height="54" fill="white"/>
</clipPath>
<clipPath id="clip1_1851_22804">
<rect width="46" height="50" fill="white" transform="translate(4 2)"/>
</clipPath>
</defs>
</svg>
