<svg width="54" height="54" viewBox="0 0 54 54" fill="none" xmlns="http://www.w3.org/2000/svg">
<g clip-path="url(#clip0_69_6291)">
<path d="M53.8618 50.5042C53.8618 52.3563 52.3562 53.8619 50.504 53.8619H3.49589C1.64386 53.8619 0.138184 52.3563 0.138184 50.5042V3.49589C0.138184 1.64386 1.64386 0.138184 3.49589 0.138184H50.504C52.3562 0.138184 53.8618 1.64386 53.8618 3.49589V50.5042Z" fill="#FFFAEB"/>
<path d="M10.99 13H42.0311C43.666 13 45 14.3913 45 16.0962V37.9043C45 39.6099 43.666 41 42.0311 41H10.99C9.33355 41 8 39.61 8 37.9043V16.0962C8 14.3913 9.33355 13 10.99 13Z" fill="#59A1B5"/>
<path d="M26.5677 31.219L27.0003 31.5244L27.4328 31.219L40.7866 21.7908V40.3979V41.1479H41.5366H42.5027C44.5487 41.1479 46.2164 39.4821 46.2164 37.435V17.5733V16.5641C46.2164 14.8348 45.0275 13.3894 43.4255 12.9619L43.0862 12.8713L42.7994 13.0739L27.0005 24.2343L11.2213 13.0742L10.9403 12.8755L10.6064 12.9589C8.99315 13.3619 7.78394 14.8357 7.78394 16.5641V17.5516V37.4352C7.78394 39.4854 9.45427 41.1481 11.5185 41.1481H12.4631H13.2131V40.3981V21.7909L26.5677 31.219Z" fill="#247BA0" stroke="#FFFEFD" stroke-width="1.5"/>
</g>
<defs>
<clipPath id="clip0_69_6291">
<rect width="54" height="54" fill="white"/>
</clipPath>
</defs>
</svg>
