<svg width="551" height="155" viewBox="0 0 551 155" fill="none" xmlns="http://www.w3.org/2000/svg">
<path d="M343.795 134.131C343.87 130.925 344.381 127.651 344.681 124.458C345.023 120.801 344.902 117.12 345.154 113.446C345.411 109.721 345.747 106.052 345.747 102.286C345.747 97.9774 345.85 92.1586 342.439 88.9927C338.635 85.4641 333.707 91.0274 331.76 93.953C326.972 101.151 323.289 109.017 319.403 116.72L315.876 123.714C315.341 124.775 314.478 125.828 314.225 126.988C312.829 126.587 313.479 124.24 313.663 123.119C314.33 119.083 314.498 114.916 315.356 110.917C316.823 104.097 317.041 96.8454 318.009 89.9345C318.821 84.1359 319.547 78.3546 320.094 72.5238C321.361 57.9406 320.094 72.5238 321.361 57.9406C321.605 56.8051 321.679 55.0086 320.379 54.5217C318.41 53.7836 317.716 56.6906 317.377 57.9406C315.726 71.3334 317.377 57.9406 315.726 71.3334C314.244 83.5357 314.7 79.5072 314.244 83.5357C312.962 94.8533 311.219 106.133 310.157 117.464C309.783 121.442 309.121 125.523 309.121 129.518C309.121 131.037 308.896 132.934 309.781 134.273C310.754 135.741 312.788 135.47 314.055 134.558C316.072 133.105 317.258 129.739 318.316 127.583C322.932 118.171 327.524 108.672 332.788 99.6073C334.025 97.4778 335.399 95.1238 336.948 93.2085C337.411 92.6359 338.422 91.6234 339.273 91.9391C340.448 92.3748 340.693 94.5595 340.886 95.5893C341.595 99.3479 341.244 103.371 341.244 107.196C341.244 114.214 340.549 121.379 339.762 128.327C339.376 131.733 339.508 135.189 339.123 138.595C338.719 142.162 338.075 145.717 337.784 149.309C337.685 150.543 337.267 151.762 337.533 153.03C338.179 157.531 341.642 153.013 342.291 151.69C343.246 149.675 344.036 147.513 344.857 145.44C349.906 132.702 355.649 120.646 362.829 108.94C380.474 80.1639 402.873 53.2142 429.806 32.5759C443.692 21.9351 459.144 12.5497 476.189 7.87459C496.096 2.4139 516.974 4.97269 534.02 17.056C538.438 20.1878 542.129 23.8397 545.838 27.7323C546.832 28.7751 548.65 31.8047 550.226 29.8149C551.153 28.6439 549.603 27.1205 548.878 26.2442C546.464 23.3238 543.759 20.8326 541.035 18.2107C528.27 5.55626 509.284 0.220709 499.455 0.500208C475.318 0.500208 452.636 10.5801 433.108 24.2638C407.587 42.1465 386.079 65.5057 368.414 90.9762C362.386 99.6698 356.672 108.779 351.901 118.208C350.39 121.196 348.813 124.208 347.499 127.286C346.485 129.655 345.654 132.283 343.795 134.131ZM99.423 108.536C99.366 106.612 100.808 104.431 101.334 102.583C103.124 96.287 105.92 90.1948 107.409 83.8333C107.934 81.5915 109.941 77.5963 108.358 75.5002C106.632 73.2133 103.757 74.3343 102.002 75.9948C97.7865 79.9852 94.3956 85.2109 90.8512 89.7857C89.7114 91.2569 88.6565 92.7949 87.4963 94.2498C87.3514 94.4315 86.4556 95.5419 86.1702 95.104C85.9032 94.6939 87.2923 92.3661 87.5098 91.869C88.9958 88.4734 90.673 85.1753 92.0972 81.7502C92.978 79.632 93.8624 77.525 94.5945 75.3512C97.7906 65.8611 103.228 50.698 92.0678 44.1785C90.1215 43.0416 87.9155 42.7037 85.7633 42.2479C83.3604 41.739 79.6328 41.5732 77.2073 42.0857C72.3919 43.1032 67.5478 43.6751 62.7971 45.1959C42.8555 51.5797 24.048 62.7767 9.51234 77.7322C5.57777 81.7802 2.95346 86.879 1.20473 92.1667C0.703076 93.6832 -0.150577 96.9995 1.42328 98.154C2.24962 98.7602 3.75488 98.6611 4.05809 97.5216C4.42105 96.1571 4.43816 94.7228 4.85891 93.3571C6.67729 87.4549 10.3744 81.3463 14.7632 76.9881C23.4132 68.3986 33.5911 61.5568 44.3341 55.7996C52.0519 51.6635 60.1036 47.8174 68.6518 45.6732C76.1321 43.797 87.6078 41.6815 92.3513 49.756C96.0906 56.1212 93.0076 65.2621 90.7926 71.631C84.7732 88.9386 75.7625 105.575 66.2059 121.184C62.9543 126.496 60.2971 132.235 56.8477 137.418C55.9954 138.699 53.964 141.946 56.3427 142.821C58.4176 143.585 59.8432 141.876 60.8457 140.381L68.351 129.22C76.0729 117.702 84.1961 106.316 92.6184 95.2917C94.7854 92.4552 96.77 89.4833 98.9569 86.6607C99.6831 85.7235 100.634 83.9642 101.738 83.4505C102.253 83.2107 102.619 83.6432 102.483 84.1332C101.842 86.4305 100.785 88.6624 100.113 90.9762C98.1556 97.7161 95.1616 104.197 93.637 111.065C93.4049 112.111 92.8623 113.575 93.0005 114.637C93.2611 116.637 95.4396 117.304 97.1714 116.755C99.9282 115.882 101.997 112.318 103.702 110.173C107.939 104.842 112.496 99.7835 117.013 94.6964C131.391 78.5051 146.447 62.608 164.569 50.4242C170.618 46.3569 176.723 42.2968 183.332 39.1576C184.955 38.3866 188.967 36.1519 190.405 38.1629C191.741 40.03 190.714 42.858 190.306 44.8453C189.038 51.0212 185.926 56.9606 183.107 62.5536C171.697 85.1891 160.252 107.797 146.9 129.369C143.396 135.03 139.729 140.606 136.332 146.333C135.423 147.867 134.423 149.338 133.644 150.946C133.371 151.507 132.832 152.226 132.952 152.881C133.913 155.681 135.398 153.81 136.549 152.162C137.467 150.817 138.39 149.472 139.3 148.119C143.054 142.536 146.945 136.934 150.384 131.155C155.315 122.866 160.632 114.799 165.477 106.452C173.485 92.6613 180.659 78.4226 187.835 64.1905C189.688 60.5172 191.264 56.6976 192.789 52.881C194.006 49.8377 195.29 46.7712 195.66 43.5061C196.016 40.3803 196.348 37.3476 193.689 35.0437C191.366 33.0305 187.331 33.5973 184.683 34.4791C177.712 36.801 171.481 41.0141 165.319 44.8772C154.228 51.8297 143.569 60.2559 134.425 69.573C122.195 82.0347 111.153 95.6216 99.423 108.536ZM289.157 74.4584C287.219 75.5463 286.778 77.3822 285.979 79.3691C285.059 81.6606 284.095 83.9393 283.136 86.2143C280.981 91.3254 278.619 96.3309 276.498 101.456C275.758 103.246 274.945 105.054 274.353 106.899C274.04 107.881 273.873 109.318 273.306 110.17C272.926 110.74 272.241 111.061 271.745 111.52C270.382 112.78 269.091 114.052 267.542 115.1C265.086 116.762 262.527 117.512 259.586 117.463C258.307 117.442 256.398 116.847 255.949 115.53C255.673 114.719 255.806 113.293 256.741 112.942C257.549 112.639 259.259 113.149 260.186 113.149C262.773 113.149 264.894 112.264 266.621 110.321C267.518 109.313 268.214 107.885 267.56 106.602C266.474 104.475 263.01 104.938 261.087 105.38C258.273 106.028 255.565 107.567 253.802 109.875C253.046 110.865 252.804 112.106 252.136 113.121C251.146 114.626 248.946 116.084 247.127 116.254C244.062 116.539 246.242 112.354 246.225 110.917C246.215 109.862 245.452 109.01 244.301 109.172C241.336 109.591 238.945 113.3 236.62 114.932C236.1 115.297 234.223 116.851 233.591 116.035C233.322 115.689 233.699 115.103 233.858 114.786C234.413 113.679 235.131 112.785 235.869 111.807C237.27 109.955 240.381 106.822 242.924 106.699C244.28 106.633 244.82 108.493 246.357 107.77C247.72 107.129 247.018 105.033 246.143 104.278C244.364 102.741 241.261 103.854 239.472 104.741C237.271 105.831 235.143 107.205 233.317 108.849C231.15 110.801 229.209 113.422 225.962 113.724C224.484 113.862 224.475 112.425 224.761 111.363C225.417 108.933 226.938 104.124 223.861 102.654C221.25 101.407 218.663 103.346 216.612 104.737C215.698 105.358 214.674 106.356 213.503 106.155C216.894 98.6372 221.04 91.471 224.182 83.8275C224.91 82.054 225.542 80.2634 226.232 78.4762C226.45 77.9128 226.882 76.839 226.214 76.3971C225.515 75.934 224.017 76.2344 223.525 76.8591C221.939 78.8766 220.701 82.1948 219.764 84.5774C217.646 89.9632 214.772 95.075 212.385 100.351C211.594 102.098 210.645 103.791 209.904 105.559C209.161 107.33 208.398 109.704 207.101 111.159C205.944 112.459 203.669 113.412 202.095 114.109C199.464 115.273 196.016 116.582 193.089 116.255C192.579 116.198 192.062 116.002 191.588 115.815C188.185 114.469 189.782 111.146 191.555 109.068C192.753 107.665 194.475 105.793 196.391 105.45C197.753 105.207 199.692 106.517 200.696 105.379C201.743 104.193 199.737 103.283 198.793 103.194C194.931 102.832 191.124 103.993 188.451 106.899C187.215 108.242 186.924 109.958 185.902 111.336C183.942 113.98 178.752 116.924 175.377 116.274C175.698 113.66 177.236 111.482 178.296 109.131C178.646 108.354 179.186 107.115 178.075 106.691C176.535 106.103 175.522 107.44 174.803 108.536C173.446 110.601 171.7 113.601 171.627 116.125C171.595 117.189 171.574 118.292 172.532 118.987C175.181 120.909 180.018 119.132 182.383 117.472C183.217 116.887 184.467 115.289 185.429 115.1C186.105 114.968 186.864 116.675 187.385 117.06C189.036 118.282 190.962 118.503 192.939 118.772C195.811 118.518 199.093 118.19 201.495 117.416C202.589 117.055 203.802 116.114 204.947 116.125C204.59 116.812 203.708 118.018 203.814 118.803C204.014 120.277 206.726 119.778 207.442 119.062C208.78 117.727 209.692 115.823 210.871 114.339C212.627 112.125 214.712 110.285 216.806 108.402C217.594 107.694 219.826 105.417 221.006 105.784C221.893 106.06 221.495 106.991 221.461 107.643C221.362 109.518 220.488 111.294 220.278 113.149C220.224 113.624 220.224 114.166 220.315 114.637C221.132 118.839 226.471 116.122 228.964 115.232C228.936 116.207 228.534 117.074 229.116 117.996C230.796 120.651 235.805 119.285 237.923 118.042C239.329 117.215 240.404 115.762 241.874 115.083C242.019 115.861 242.078 116.601 242.456 117.315C243.666 119.604 247.741 118.991 249.679 118.08C250.559 117.667 251.408 116.997 252.381 116.869C252.915 118.808 255.173 119.338 256.884 119.761C262.861 121.24 267.566 117.8 272.345 114.935C272.345 115.782 272.425 116.5 272.666 117.315C274.296 122.841 281.311 119.88 284.504 117.547C285.337 116.938 286.089 116.244 286.905 115.618C288.123 114.685 289.221 113.629 290.145 112.405C290.434 112.02 291.075 111.471 290.976 110.933C290.67 109.274 288.187 111.599 287.806 111.95C285.521 114.06 282.947 115.75 280.088 117.003C278.756 117.587 277.084 117.806 276.513 116.125C275.665 113.627 277.707 109.837 278.499 107.494C281.068 99.9026 284.232 92.356 287.474 85.0239C288.384 82.9664 289.097 80.8056 290.061 78.7739C290.424 78.0106 291.246 76.819 291.057 75.9465C290.861 75.0358 289.903 74.7803 289.157 74.4584ZM375.318 116.274C375.441 115.305 376.02 114.574 376.49 113.744C378.021 111.04 380.896 108.102 383.874 106.958C384.321 106.786 384.899 106.586 385.375 106.742C386.421 107.086 388.508 109.246 389.078 106.75C389.98 102.794 384.027 103.504 382.072 104.445C377.71 106.546 373.685 109.675 371.498 114.067C371.148 114.768 370.855 115.652 370.721 116.423C370.008 120.536 376.774 119.407 378.77 118.581C380.675 117.793 381.994 116.29 383.724 115.232C384.998 121.388 392.122 118.348 395.432 115.679C395.675 116.676 395.89 117.747 396.402 118.655C398.959 123.197 405.354 118.642 408.341 117.167C407.991 118.829 406.947 120.345 406.348 121.929C406.068 122.667 405.782 123.525 406.556 124.071C407.551 124.773 408.512 123.784 408.971 122.97C409.803 121.5 410.659 120.01 411.418 118.506C411.72 117.908 412.014 116.921 412.702 116.662C413.35 116.419 414.188 116.867 414.796 117.068C416.148 117.517 417.564 118.005 418.999 118.057C423.62 118.224 428.382 116.782 432.508 114.786C432.786 115.94 432.805 117.082 433.649 118.028C434.592 119.087 436.279 119.496 437.612 119.735C441.34 120.401 445.467 119.813 448.72 117.762C448.616 119.42 450.62 120.119 451.84 118.931C452.853 117.944 453.554 116.523 454.38 115.381C456.719 112.148 459.896 108.014 464.03 107.018C466.704 106.374 463.858 110.892 466.432 110.336C468.487 109.892 468.931 107.456 468.652 105.709C468.229 103.07 463.473 104.608 461.929 105.113C461.449 105.27 460.671 105.702 460.159 105.58C458.855 105.269 459.122 102.574 456.983 103.672C455.282 104.546 454.354 107.713 453.473 109.28C451.165 113.379 446.744 117.463 441.665 117.464C440.291 117.465 438.736 117.567 437.6 116.65C436.726 115.945 435.767 113.552 437.32 112.941C438.077 112.644 439.333 113.149 440.164 113.149C442.463 113.149 444.434 112.804 446.318 111.399C448.041 110.114 449.511 107.429 447.516 105.748C446.669 105.034 445.71 105.113 444.667 105.113C442.11 105.113 439.986 105.749 437.762 107.009C435.836 108.101 435.123 109.886 433.508 111.149C432.573 111.88 431.318 112.325 430.257 112.851C426.848 114.541 422.104 116.365 418.248 115.441C415.816 114.859 415.157 113.173 417.347 111.586C419.802 109.808 423.014 108.954 425.603 107.347C426.36 106.878 428.981 106.121 428.044 104.848C427.505 104.115 426.655 104.419 425.903 104.535C424.045 104.82 421.873 106.409 420.199 107.252C419.596 107.556 418.38 108.272 417.709 107.788C417.199 107.42 417.606 106.463 417.813 106.031L420.117 101.244C422.939 95.3569 426.04 89.4132 428.179 83.2383C428.607 82.0047 430.945 77.586 428.755 77.0357C427.447 76.7068 426.732 77.7869 426.207 78.7735C424.938 81.157 424.077 83.776 422.906 86.2145C420.013 92.2355 417.296 98.3312 414.428 104.369C413.167 107.024 412.089 110.598 409.992 112.702C408.194 114.506 405.758 116.004 403.382 116.941C402.562 117.264 401.565 117.75 400.686 117.311C397.994 115.968 400.513 110.831 401.187 108.834C404.003 100.482 407.789 92.4858 410.965 84.2799C411.87 81.944 413.364 79.5561 413.975 77.1372C414.257 76.0163 413.976 74.851 412.694 74.6413C411.664 74.473 410.905 75.2772 410.461 76.0955C409.317 78.2034 408.56 80.7126 407.651 82.9407C405.028 89.3609 402.149 95.6755 399.435 102.054C398.721 103.735 398.026 105.464 397.458 107.197C397.086 108.335 396.901 109.752 396.247 110.768C394.979 112.738 392.703 115.01 390.478 115.895C389.641 116.228 388.209 116.637 387.631 115.651C386.819 114.265 388.33 112.322 388.366 110.917C388.39 109.948 387.412 109.043 386.424 109.173C381.961 109.757 379.964 116.258 375.318 116.274ZM183.482 97.0774C180.908 96.5533 179.922 98.5053 178.939 100.649C178.673 101.226 177.792 102.612 178.49 103.174C179.27 103.802 180.786 103.106 181.381 102.568C182.813 101.267 184.084 98.9884 183.482 97.0774ZM262.738 107.435C263.816 107.367 263.73 108.778 263.397 109.428C262.933 110.331 261.775 110.855 260.787 110.91C260.442 110.929 260.08 110.934 259.736 110.901C258.558 110.79 257.953 110.042 258.966 109.183C259.946 108.352 261.411 107.519 262.738 107.435ZM443.616 107.484C444.916 107.54 444.402 108.931 443.903 109.563C443.068 110.614 441.774 111.031 440.464 110.901C439.44 110.8 438.635 110.014 439.572 109.17C440.501 108.332 442.323 107.428 443.616 107.484Z" fill="#D60015"/>
</svg>
